<svg display="none" xmlns="http://www.w3.org/2000/svg">
<symbol id="support" viewBox="0 0 296 176">
    <path d="M84.0195 162.395C82.0898 161.84 80.6836 161.16 79.8008 160.355C78.9258 159.543 78.4883 158.543 78.4883 157.355C78.4883 156.012 79.0234 154.902 80.0938 154.027C81.1719 153.145 82.5703 152.703 84.2891 152.703C85.4609 152.703 86.5039 152.93 87.418 153.383C88.3398 153.836 89.0508 154.461 89.5508 155.258C90.0586 156.055 90.3125 156.926 90.3125 157.871H88.0508C88.0508 156.84 87.7227 156.031 87.0664 155.445C86.4102 154.852 85.4844 154.555 84.2891 154.555C83.1797 154.555 82.3125 154.801 81.6875 155.293C81.0703 155.777 80.7617 156.453 80.7617 157.32C80.7617 158.016 81.0547 158.605 81.6406 159.09C82.2344 159.566 83.2383 160.004 84.6523 160.402C86.0742 160.801 87.1836 161.242 87.9805 161.727C88.7852 162.203 89.3789 162.762 89.7617 163.402C90.1523 164.043 90.3477 164.797 90.3477 165.664C90.3477 167.047 89.8086 168.156 88.7305 168.992C87.6523 169.82 86.2109 170.234 84.4062 170.234C83.2344 170.234 82.1406 170.012 81.125 169.566C80.1094 169.113 79.3242 168.496 78.7695 167.715C78.2227 166.934 77.9492 166.047 77.9492 165.055H80.2109C80.2109 166.086 80.5898 166.902 81.3477 167.504C82.1133 168.098 83.1328 168.395 84.4062 168.395C85.5938 168.395 86.5039 168.152 87.1367 167.668C87.7695 167.184 88.0859 166.523 88.0859 165.688C88.0859 164.852 87.793 164.207 87.207 163.754C86.6211 163.293 85.5586 162.84 84.0195 162.395ZM100.73 168.746C99.8867 169.738 98.6484 170.234 97.0156 170.234C95.6641 170.234 94.6328 169.844 93.9219 169.062C93.2188 168.273 92.8633 167.109 92.8555 165.57V157.32H95.0234V165.512C95.0234 167.434 95.8047 168.395 97.3672 168.395C99.0234 168.395 100.125 167.777 100.672 166.543V157.32H102.84V170H100.777L100.73 168.746ZM116.855 163.801C116.855 165.73 116.414 167.285 115.531 168.465C114.648 169.645 113.453 170.234 111.945 170.234C110.406 170.234 109.195 169.746 108.312 168.77V174.875H106.145V157.32H108.125L108.23 158.727C109.113 157.633 110.34 157.086 111.91 157.086C113.434 157.086 114.637 157.66 115.52 158.809C116.41 159.957 116.855 161.555 116.855 163.602V163.801ZM114.688 163.555C114.688 162.125 114.383 160.996 113.773 160.168C113.164 159.34 112.328 158.926 111.266 158.926C109.953 158.926 108.969 159.508 108.312 160.672V166.73C108.961 167.887 109.953 168.465 111.289 168.465C112.328 168.465 113.152 168.055 113.762 167.234C114.379 166.406 114.688 165.18 114.688 163.555ZM130.332 163.801C130.332 165.73 129.891 167.285 129.008 168.465C128.125 169.645 126.93 170.234 125.422 170.234C123.883 170.234 122.672 169.746 121.789 168.77V174.875H119.621V157.32H121.602L121.707 158.727C122.59 157.633 123.816 157.086 125.387 157.086C126.91 157.086 128.113 157.66 128.996 158.809C129.887 159.957 130.332 161.555 130.332 163.602V163.801ZM128.164 163.555C128.164 162.125 127.859 160.996 127.25 160.168C126.641 159.34 125.805 158.926 124.742 158.926C123.43 158.926 122.445 159.508 121.789 160.672V166.73C122.438 167.887 123.43 168.465 124.766 168.465C125.805 168.465 126.629 168.055 127.238 167.234C127.855 166.406 128.164 165.18 128.164 163.555ZM132.523 163.543C132.523 162.301 132.766 161.184 133.25 160.191C133.742 159.199 134.422 158.434 135.289 157.895C136.164 157.355 137.16 157.086 138.277 157.086C140.004 157.086 141.398 157.684 142.461 158.879C143.531 160.074 144.066 161.664 144.066 163.648V163.801C144.066 165.035 143.828 166.145 143.352 167.129C142.883 168.105 142.207 168.867 141.324 169.414C140.449 169.961 139.441 170.234 138.301 170.234C136.582 170.234 135.188 169.637 134.117 168.441C133.055 167.246 132.523 165.664 132.523 163.695V163.543ZM134.703 163.801C134.703 165.207 135.027 166.336 135.676 167.188C136.332 168.039 137.207 168.465 138.301 168.465C139.402 168.465 140.277 168.035 140.926 167.176C141.574 166.309 141.898 165.098 141.898 163.543C141.898 162.152 141.566 161.027 140.902 160.168C140.246 159.301 139.371 158.867 138.277 158.867C137.207 158.867 136.344 159.293 135.688 160.145C135.031 160.996 134.703 162.215 134.703 163.801ZM152.914 159.266C152.586 159.211 152.23 159.184 151.848 159.184C150.426 159.184 149.461 159.789 148.953 161V170H146.785V157.32H148.895L148.93 158.785C149.641 157.652 150.648 157.086 151.953 157.086C152.375 157.086 152.695 157.141 152.914 157.25V159.266ZM158.445 154.25V157.32H160.812V158.996H158.445V166.859C158.445 167.367 158.551 167.75 158.762 168.008C158.973 168.258 159.332 168.383 159.84 168.383C160.09 168.383 160.434 168.336 160.871 168.242V170C160.301 170.156 159.746 170.234 159.207 170.234C158.238 170.234 157.508 169.941 157.016 169.355C156.523 168.77 156.277 167.938 156.277 166.859V158.996H153.969V157.32H156.277V154.25H158.445ZM180.266 170H169.086V168.441L174.992 161.879C175.867 160.887 176.469 160.082 176.797 159.465C177.133 158.84 177.301 158.195 177.301 157.531C177.301 156.641 177.031 155.91 176.492 155.34C175.953 154.77 175.234 154.484 174.336 154.484C173.258 154.484 172.418 154.793 171.816 155.41C171.223 156.02 170.926 156.871 170.926 157.965H168.758C168.758 156.395 169.262 155.125 170.27 154.156C171.285 153.188 172.641 152.703 174.336 152.703C175.922 152.703 177.176 153.121 178.098 153.957C179.02 154.785 179.48 155.891 179.48 157.273C179.48 158.953 178.41 160.953 176.27 163.273L171.699 168.23H180.266V170ZM191.715 164.27H194.082V166.039H191.715V170H189.535V166.039H181.766V164.762L189.406 152.938H191.715V164.27ZM184.227 164.27H189.535V155.902L189.277 156.371L184.227 164.27ZM196.695 171.465H194.832L201.957 152.938H203.809L196.695 171.465ZM216.945 154.156L209.879 170H207.605L214.648 154.719H205.414V152.938H216.945V154.156Z" fill="#383838"/>
    <path d="M177.167 58.3333V75H168.833V58.3333H177.167ZM127.167 58.3333V75H123C120.708 75 118.833 73.125 118.833 70.8333V58.3333H127.167ZM148 4.16663C127.292 4.16663 110.5 20.9583 110.5 41.6666V70.8333C110.5 77.75 116.083 83.3333 123 83.3333H135.5V50H118.833V41.6666C118.833 25.5416 131.875 12.5 148 12.5C164.125 12.5 177.167 25.5416 177.167 41.6666V50H160.5V83.3333H177.167V87.5H148V95.8333H173C179.917 95.8333 185.5 90.25 185.5 83.3333V41.6666C185.5 20.9583 168.708 4.16663 148 4.16663Z" fill="#3077C6"/>
</symbol>

    <symbol id="communicate" viewBox="0 0 296 178">
        <path d="M45.7773 164.586C45.5664 166.391 44.8984 167.785 43.7734 168.77C42.6562 169.746 41.168 170.234 39.3086 170.234C37.293 170.234 35.6758 169.512 34.457 168.066C33.2461 166.621 32.6406 164.688 32.6406 162.266V160.625C32.6406 159.039 32.9219 157.645 33.4844 156.441C34.0547 155.238 34.8594 154.316 35.8984 153.676C36.9375 153.027 38.1406 152.703 39.5078 152.703C41.3203 152.703 42.7734 153.211 43.8672 154.227C44.9609 155.234 45.5977 156.633 45.7773 158.422H43.5156C43.3203 157.062 42.8945 156.078 42.2383 155.469C41.5898 154.859 40.6797 154.555 39.5078 154.555C38.0703 154.555 36.9414 155.086 36.1211 156.148C35.3086 157.211 34.9023 158.723 34.9023 160.684V162.336C34.9023 164.188 35.2891 165.66 36.0625 166.754C36.8359 167.848 37.918 168.395 39.3086 168.395C40.5586 168.395 41.5156 168.113 42.1797 167.551C42.8516 166.98 43.2969 165.992 43.5156 164.586H45.7773ZM47.9453 163.543C47.9453 162.301 48.1875 161.184 48.6719 160.191C49.1641 159.199 49.8438 158.434 50.7109 157.895C51.5859 157.355 52.582 157.086 53.6992 157.086C55.4258 157.086 56.8203 157.684 57.8828 158.879C58.9531 160.074 59.4883 161.664 59.4883 163.648V163.801C59.4883 165.035 59.25 166.145 58.7734 167.129C58.3047 168.105 57.6289 168.867 56.7461 169.414C55.8711 169.961 54.8633 170.234 53.7227 170.234C52.0039 170.234 50.6094 169.637 49.5391 168.441C48.4766 167.246 47.9453 165.664 47.9453 163.695V163.543ZM50.125 163.801C50.125 165.207 50.4492 166.336 51.0977 167.188C51.7539 168.039 52.6289 168.465 53.7227 168.465C54.8242 168.465 55.6992 168.035 56.3477 167.176C56.9961 166.309 57.3203 165.098 57.3203 163.543C57.3203 162.152 56.9883 161.027 56.3242 160.168C55.668 159.301 54.793 158.867 53.6992 158.867C52.6289 158.867 51.7656 159.293 51.1094 160.145C50.4531 160.996 50.125 162.215 50.125 163.801ZM64.2461 157.32L64.3047 158.727C65.2344 157.633 66.4883 157.086 68.0664 157.086C69.8398 157.086 71.0469 157.766 71.6875 159.125C72.1094 158.516 72.6562 158.023 73.3281 157.648C74.0078 157.273 74.8086 157.086 75.7305 157.086C78.5117 157.086 79.9258 158.559 79.9727 161.504V170H77.8047V161.633C77.8047 160.727 77.5977 160.051 77.1836 159.605C76.7695 159.152 76.0742 158.926 75.0977 158.926C74.293 158.926 73.625 159.168 73.0938 159.652C72.5625 160.129 72.2539 160.773 72.168 161.586V170H69.9883V161.691C69.9883 159.848 69.0859 158.926 67.2812 158.926C65.8594 158.926 64.8867 159.531 64.3633 160.742V170H62.1953V157.32H64.2461ZM85.293 157.32L85.3516 158.727C86.2812 157.633 87.5352 157.086 89.1133 157.086C90.8867 157.086 92.0938 157.766 92.7344 159.125C93.1562 158.516 93.7031 158.023 94.375 157.648C95.0547 157.273 95.8555 157.086 96.7773 157.086C99.5586 157.086 100.973 158.559 101.02 161.504V170H98.8516V161.633C98.8516 160.727 98.6445 160.051 98.2305 159.605C97.8164 159.152 97.1211 158.926 96.1445 158.926C95.3398 158.926 94.6719 159.168 94.1406 159.652C93.6094 160.129 93.3008 160.773 93.2148 161.586V170H91.0352V161.691C91.0352 159.848 90.1328 158.926 88.3281 158.926C86.9062 158.926 85.9336 159.531 85.4102 160.742V170H83.2422V157.32H85.293ZM112.129 168.746C111.285 169.738 110.047 170.234 108.414 170.234C107.062 170.234 106.031 169.844 105.32 169.062C104.617 168.273 104.262 167.109 104.254 165.57V157.32H106.422V165.512C106.422 167.434 107.203 168.395 108.766 168.395C110.422 168.395 111.523 167.777 112.07 166.543V157.32H114.238V170H112.176L112.129 168.746ZM119.594 157.32L119.664 158.914C120.633 157.695 121.898 157.086 123.461 157.086C126.141 157.086 127.492 158.598 127.516 161.621V170H125.348V161.609C125.34 160.695 125.129 160.02 124.715 159.582C124.309 159.145 123.672 158.926 122.805 158.926C122.102 158.926 121.484 159.113 120.953 159.488C120.422 159.863 120.008 160.355 119.711 160.965V170H117.543V157.32H119.594ZM133.141 170H130.973V157.32H133.141V170ZM130.797 153.957C130.797 153.605 130.902 153.309 131.113 153.066C131.332 152.824 131.652 152.703 132.074 152.703C132.496 152.703 132.816 152.824 133.035 153.066C133.254 153.309 133.363 153.605 133.363 153.957C133.363 154.309 133.254 154.602 133.035 154.836C132.816 155.07 132.496 155.188 132.074 155.188C131.652 155.188 131.332 155.07 131.113 154.836C130.902 154.602 130.797 154.309 130.797 153.957ZM141.707 168.465C142.48 168.465 143.156 168.23 143.734 167.762C144.312 167.293 144.633 166.707 144.695 166.004H146.746C146.707 166.73 146.457 167.422 145.996 168.078C145.535 168.734 144.918 169.258 144.145 169.648C143.379 170.039 142.566 170.234 141.707 170.234C139.98 170.234 138.605 169.66 137.582 168.512C136.566 167.355 136.059 165.777 136.059 163.777V163.414C136.059 162.18 136.285 161.082 136.738 160.121C137.191 159.16 137.84 158.414 138.684 157.883C139.535 157.352 140.539 157.086 141.695 157.086C143.117 157.086 144.297 157.512 145.234 158.363C146.18 159.215 146.684 160.32 146.746 161.68H144.695C144.633 160.859 144.32 160.188 143.758 159.664C143.203 159.133 142.516 158.867 141.695 158.867C140.594 158.867 139.738 159.266 139.129 160.062C138.527 160.852 138.227 161.996 138.227 163.496V163.906C138.227 165.367 138.527 166.492 139.129 167.281C139.73 168.07 140.59 168.465 141.707 168.465ZM157.012 170C156.887 169.75 156.785 169.305 156.707 168.664C155.699 169.711 154.496 170.234 153.098 170.234C151.848 170.234 150.82 169.883 150.016 169.18C149.219 168.469 148.82 167.57 148.82 166.484C148.82 165.164 149.32 164.141 150.32 163.414C151.328 162.68 152.742 162.312 154.562 162.312H156.672V161.316C156.672 160.559 156.445 159.957 155.992 159.512C155.539 159.059 154.871 158.832 153.988 158.832C153.215 158.832 152.566 159.027 152.043 159.418C151.52 159.809 151.258 160.281 151.258 160.836H149.078C149.078 160.203 149.301 159.594 149.746 159.008C150.199 158.414 150.809 157.945 151.574 157.602C152.348 157.258 153.195 157.086 154.117 157.086C155.578 157.086 156.723 157.453 157.551 158.188C158.379 158.914 158.809 159.918 158.84 161.199V167.035C158.84 168.199 158.988 169.125 159.285 169.812V170H157.012ZM153.414 168.348C154.094 168.348 154.738 168.172 155.348 167.82C155.957 167.469 156.398 167.012 156.672 166.449V163.848H154.973C152.316 163.848 150.988 164.625 150.988 166.18C150.988 166.859 151.215 167.391 151.668 167.773C152.121 168.156 152.703 168.348 153.414 168.348ZM165.18 154.25V157.32H167.547V158.996H165.18V166.859C165.18 167.367 165.285 167.75 165.496 168.008C165.707 168.258 166.066 168.383 166.574 168.383C166.824 168.383 167.168 168.336 167.605 168.242V170C167.035 170.156 166.48 170.234 165.941 170.234C164.973 170.234 164.242 169.941 163.75 169.355C163.258 168.77 163.012 167.938 163.012 166.859V158.996H160.703V157.32H163.012V154.25H165.18ZM175.352 170.234C173.633 170.234 172.234 169.672 171.156 168.547C170.078 167.414 169.539 165.902 169.539 164.012V163.613C169.539 162.355 169.777 161.234 170.254 160.25C170.738 159.258 171.41 158.484 172.27 157.93C173.137 157.367 174.074 157.086 175.082 157.086C176.73 157.086 178.012 157.629 178.926 158.715C179.84 159.801 180.297 161.355 180.297 163.379V164.281H171.707C171.738 165.531 172.102 166.543 172.797 167.316C173.5 168.082 174.391 168.465 175.469 168.465C176.234 168.465 176.883 168.309 177.414 167.996C177.945 167.684 178.41 167.27 178.809 166.754L180.133 167.785C179.07 169.418 177.477 170.234 175.352 170.234ZM175.082 158.867C174.207 158.867 173.473 159.188 172.879 159.828C172.285 160.461 171.918 161.352 171.777 162.5H178.129V162.336C178.066 161.234 177.77 160.383 177.238 159.781C176.707 159.172 175.988 158.867 175.082 158.867ZM188.242 163.555C188.242 161.609 188.703 160.047 189.625 158.867C190.547 157.68 191.754 157.086 193.246 157.086C194.73 157.086 195.906 157.594 196.773 158.609V152H198.941V170H196.949L196.844 168.641C195.977 169.703 194.77 170.234 193.223 170.234C191.754 170.234 190.555 169.633 189.625 168.43C188.703 167.227 188.242 165.656 188.242 163.719V163.555ZM190.41 163.801C190.41 165.238 190.707 166.363 191.301 167.176C191.895 167.988 192.715 168.395 193.762 168.395C195.137 168.395 196.141 167.777 196.773 166.543V160.719C196.125 159.523 195.129 158.926 193.785 158.926C192.723 158.926 191.895 159.336 191.301 160.156C190.707 160.977 190.41 162.191 190.41 163.801ZM204.672 170H202.504V157.32H204.672V170ZM202.328 153.957C202.328 153.605 202.434 153.309 202.645 153.066C202.863 152.824 203.184 152.703 203.605 152.703C204.027 152.703 204.348 152.824 204.566 153.066C204.785 153.309 204.895 153.605 204.895 153.957C204.895 154.309 204.785 154.602 204.566 154.836C204.348 155.07 204.027 155.188 203.605 155.188C203.184 155.188 202.863 155.07 202.645 154.836C202.434 154.602 202.328 154.309 202.328 153.957ZM214.281 159.266C213.953 159.211 213.598 159.184 213.215 159.184C211.793 159.184 210.828 159.789 210.32 161V170H208.152V157.32H210.262L210.297 158.785C211.008 157.652 212.016 157.086 213.32 157.086C213.742 157.086 214.062 157.141 214.281 157.25V159.266ZM221.312 170.234C219.594 170.234 218.195 169.672 217.117 168.547C216.039 167.414 215.5 165.902 215.5 164.012V163.613C215.5 162.355 215.738 161.234 216.215 160.25C216.699 159.258 217.371 158.484 218.23 157.93C219.098 157.367 220.035 157.086 221.043 157.086C222.691 157.086 223.973 157.629 224.887 158.715C225.801 159.801 226.258 161.355 226.258 163.379V164.281H217.668C217.699 165.531 218.062 166.543 218.758 167.316C219.461 168.082 220.352 168.465 221.43 168.465C222.195 168.465 222.844 168.309 223.375 167.996C223.906 167.684 224.371 167.27 224.77 166.754L226.094 167.785C225.031 169.418 223.438 170.234 221.312 170.234ZM221.043 158.867C220.168 158.867 219.434 159.188 218.84 159.828C218.246 160.461 217.879 161.352 217.738 162.5H224.09V162.336C224.027 161.234 223.73 160.383 223.199 159.781C222.668 159.172 221.949 158.867 221.043 158.867ZM233.863 168.465C234.637 168.465 235.312 168.23 235.891 167.762C236.469 167.293 236.789 166.707 236.852 166.004H238.902C238.863 166.73 238.613 167.422 238.152 168.078C237.691 168.734 237.074 169.258 236.301 169.648C235.535 170.039 234.723 170.234 233.863 170.234C232.137 170.234 230.762 169.66 229.738 168.512C228.723 167.355 228.215 165.777 228.215 163.777V163.414C228.215 162.18 228.441 161.082 228.895 160.121C229.348 159.16 229.996 158.414 230.84 157.883C231.691 157.352 232.695 157.086 233.852 157.086C235.273 157.086 236.453 157.512 237.391 158.363C238.336 159.215 238.84 160.32 238.902 161.68H236.852C236.789 160.859 236.477 160.188 235.914 159.664C235.359 159.133 234.672 158.867 233.852 158.867C232.75 158.867 231.895 159.266 231.285 160.062C230.684 160.852 230.383 161.996 230.383 163.496V163.906C230.383 165.367 230.684 166.492 231.285 167.281C231.887 168.07 232.746 168.465 233.863 168.465ZM244.281 154.25V157.32H246.648V158.996H244.281V166.859C244.281 167.367 244.387 167.75 244.598 168.008C244.809 168.258 245.168 168.383 245.676 168.383C245.926 168.383 246.27 168.336 246.707 168.242V170C246.137 170.156 245.582 170.234 245.043 170.234C244.074 170.234 243.344 169.941 242.852 169.355C242.359 168.77 242.113 167.938 242.113 166.859V158.996H239.805V157.32H242.113V154.25H244.281ZM251.547 170H249.379V152H251.547V170ZM259.176 166.824L262.129 157.32H264.449L259.352 171.957C258.562 174.066 257.309 175.121 255.59 175.121L255.18 175.086L254.371 174.934V173.176L254.957 173.223C255.691 173.223 256.262 173.074 256.668 172.777C257.082 172.48 257.422 171.938 257.688 171.148L258.168 169.859L253.645 157.32H256.012L259.176 166.824Z" fill="#383838"/>
        <path d="M159.5 16.6667V45.8334H118.542L113.667 50.7084V16.6667H159.5ZM163.667 8.33337H109.5C107.208 8.33337 105.333 10.2084 105.333 12.5V70.8334L122 54.1667H163.667C165.958 54.1667 167.833 52.2917 167.833 50V12.5C167.833 10.2084 165.958 8.33337 163.667 8.33337ZM184.5 25H176.167V62.5H122V70.8334C122 73.125 123.875 75 126.167 75H172L188.667 91.6667V29.1667C188.667 26.875 186.792 25 184.5 25Z" fill="#3077C6"/>
    </symbol>

    <symbol id="booking" viewBox="0 0 296 184">
        <path d="M87.4727 170V152.938H93.0508C94.9023 152.938 96.293 153.32 97.2227 154.086C98.1602 154.852 98.6289 155.984 98.6289 157.484C98.6289 158.281 98.4023 158.988 97.9492 159.605C97.4961 160.215 96.8789 160.688 96.0977 161.023C97.0195 161.281 97.7461 161.773 98.2773 162.5C98.8164 163.219 99.0859 164.078 99.0859 165.078C99.0859 166.609 98.5898 167.812 97.5977 168.688C96.6055 169.562 95.2031 170 93.3906 170H87.4727ZM89.7227 162.02V168.16H93.4375C94.4844 168.16 95.3086 167.891 95.9102 167.352C96.5195 166.805 96.8242 166.055 96.8242 165.102C96.8242 163.047 95.707 162.02 93.4727 162.02H89.7227ZM89.7227 160.215H93.1211C94.1055 160.215 94.8906 159.969 95.4766 159.477C96.0703 158.984 96.3672 158.316 96.3672 157.473C96.3672 156.535 96.0938 155.855 95.5469 155.434C95 155.004 94.168 154.789 93.0508 154.789H89.7227V160.215ZM101.512 163.543C101.512 162.301 101.754 161.184 102.238 160.191C102.73 159.199 103.41 158.434 104.277 157.895C105.152 157.355 106.148 157.086 107.266 157.086C108.992 157.086 110.387 157.684 111.449 158.879C112.52 160.074 113.055 161.664 113.055 163.648V163.801C113.055 165.035 112.816 166.145 112.34 167.129C111.871 168.105 111.195 168.867 110.312 169.414C109.438 169.961 108.43 170.234 107.289 170.234C105.57 170.234 104.176 169.637 103.105 168.441C102.043 167.246 101.512 165.664 101.512 163.695V163.543ZM103.691 163.801C103.691 165.207 104.016 166.336 104.664 167.188C105.32 168.039 106.195 168.465 107.289 168.465C108.391 168.465 109.266 168.035 109.914 167.176C110.562 166.309 110.887 165.098 110.887 163.543C110.887 162.152 110.555 161.027 109.891 160.168C109.234 159.301 108.359 158.867 107.266 158.867C106.195 158.867 105.332 159.293 104.676 160.145C104.02 160.996 103.691 162.215 103.691 163.801ZM115.199 163.543C115.199 162.301 115.441 161.184 115.926 160.191C116.418 159.199 117.098 158.434 117.965 157.895C118.84 157.355 119.836 157.086 120.953 157.086C122.68 157.086 124.074 157.684 125.137 158.879C126.207 160.074 126.742 161.664 126.742 163.648V163.801C126.742 165.035 126.504 166.145 126.027 167.129C125.559 168.105 124.883 168.867 124 169.414C123.125 169.961 122.117 170.234 120.977 170.234C119.258 170.234 117.863 169.637 116.793 168.441C115.73 167.246 115.199 165.664 115.199 163.695V163.543ZM117.379 163.801C117.379 165.207 117.703 166.336 118.352 167.188C119.008 168.039 119.883 168.465 120.977 168.465C122.078 168.465 122.953 168.035 123.602 167.176C124.25 166.309 124.574 165.098 124.574 163.543C124.574 162.152 124.242 161.027 123.578 160.168C122.922 159.301 122.047 158.867 120.953 158.867C119.883 158.867 119.02 159.293 118.363 160.145C117.707 160.996 117.379 162.215 117.379 163.801ZM133 164.129L131.641 165.547V170H129.473V152H131.641V162.887L132.801 161.492L136.75 157.32H139.387L134.453 162.617L139.961 170H137.418L133 164.129ZM147.004 163.543C147.004 162.301 147.246 161.184 147.73 160.191C148.223 159.199 148.902 158.434 149.77 157.895C150.645 157.355 151.641 157.086 152.758 157.086C154.484 157.086 155.879 157.684 156.941 158.879C158.012 160.074 158.547 161.664 158.547 163.648V163.801C158.547 165.035 158.309 166.145 157.832 167.129C157.363 168.105 156.688 168.867 155.805 169.414C154.93 169.961 153.922 170.234 152.781 170.234C151.062 170.234 149.668 169.637 148.598 168.441C147.535 167.246 147.004 165.664 147.004 163.695V163.543ZM149.184 163.801C149.184 165.207 149.508 166.336 150.156 167.188C150.812 168.039 151.688 168.465 152.781 168.465C153.883 168.465 154.758 168.035 155.406 167.176C156.055 166.309 156.379 165.098 156.379 163.543C156.379 162.152 156.047 161.027 155.383 160.168C154.727 159.301 153.852 158.867 152.758 158.867C151.688 158.867 150.824 159.293 150.168 160.145C149.512 160.996 149.184 162.215 149.184 163.801ZM163.316 157.32L163.387 158.914C164.355 157.695 165.621 157.086 167.184 157.086C169.863 157.086 171.215 158.598 171.238 161.621V170H169.07V161.609C169.062 160.695 168.852 160.02 168.438 159.582C168.031 159.145 167.395 158.926 166.527 158.926C165.824 158.926 165.207 159.113 164.676 159.488C164.145 159.863 163.73 160.355 163.434 160.965V170H161.266V157.32H163.316ZM176.863 170H174.695V152H176.863V170ZM182.699 170H180.531V157.32H182.699V170ZM180.355 153.957C180.355 153.605 180.461 153.309 180.672 153.066C180.891 152.824 181.211 152.703 181.633 152.703C182.055 152.703 182.375 152.824 182.594 153.066C182.812 153.309 182.922 153.605 182.922 153.957C182.922 154.309 182.812 154.602 182.594 154.836C182.375 155.07 182.055 155.188 181.633 155.188C181.211 155.188 180.891 155.07 180.672 154.836C180.461 154.602 180.355 154.309 180.355 153.957ZM188.23 157.32L188.301 158.914C189.27 157.695 190.535 157.086 192.098 157.086C194.777 157.086 196.129 158.598 196.152 161.621V170H193.984V161.609C193.977 160.695 193.766 160.02 193.352 159.582C192.945 159.145 192.309 158.926 191.441 158.926C190.738 158.926 190.121 159.113 189.59 159.488C189.059 159.863 188.645 160.355 188.348 160.965V170H186.18V157.32H188.23ZM204.684 170.234C202.965 170.234 201.566 169.672 200.488 168.547C199.41 167.414 198.871 165.902 198.871 164.012V163.613C198.871 162.355 199.109 161.234 199.586 160.25C200.07 159.258 200.742 158.484 201.602 157.93C202.469 157.367 203.406 157.086 204.414 157.086C206.062 157.086 207.344 157.629 208.258 158.715C209.172 159.801 209.629 161.355 209.629 163.379V164.281H201.039C201.07 165.531 201.434 166.543 202.129 167.316C202.832 168.082 203.723 168.465 204.801 168.465C205.566 168.465 206.215 168.309 206.746 167.996C207.277 167.684 207.742 167.27 208.141 166.754L209.465 167.785C208.402 169.418 206.809 170.234 204.684 170.234ZM204.414 158.867C203.539 158.867 202.805 159.188 202.211 159.828C201.617 160.461 201.25 161.352 201.109 162.5H207.461V162.336C207.398 161.234 207.102 160.383 206.57 159.781C206.039 159.172 205.32 158.867 204.414 158.867Z" fill="#383838"/>
        <path d="M114.667 25H189.667V16.6666H114.667C110.083 16.6666 106.333 20.4166 106.333 25V70.8333H98V83.3333H156.333V70.8333H114.667V25ZM193.833 33.3333H168.833C166.542 33.3333 164.667 35.2083 164.667 37.5V79.1666C164.667 81.4583 166.542 83.3333 168.833 83.3333H193.833C196.125 83.3333 198 81.4583 198 79.1666V37.5C198 35.2083 196.125 33.3333 193.833 33.3333ZM189.667 70.8333H173V41.6666H189.667V70.8333Z" fill="#3077C6"/>
    </symbol>

    <symbol id="reviews" viewBox="0 0 296 183">
        <path d="M57.2109 163.098H53.2031V170H50.9414V152.938H56.5898C58.5117 152.938 59.9883 153.375 61.0195 154.25C62.0586 155.125 62.5781 156.398 62.5781 158.07C62.5781 159.133 62.2891 160.059 61.7109 160.848C61.1406 161.637 60.3438 162.227 59.3203 162.617L63.3281 169.859V170H60.9141L57.2109 163.098ZM53.2031 161.258H56.6602C57.7773 161.258 58.6641 160.969 59.3203 160.391C59.9844 159.812 60.3164 159.039 60.3164 158.07C60.3164 157.016 60 156.207 59.3672 155.645C58.7422 155.082 57.8359 154.797 56.6484 154.789H53.2031V161.258ZM70.6641 170.234C68.9453 170.234 67.5469 169.672 66.4688 168.547C65.3906 167.414 64.8516 165.902 64.8516 164.012V163.613C64.8516 162.355 65.0898 161.234 65.5664 160.25C66.0508 159.258 66.7227 158.484 67.582 157.93C68.4492 157.367 69.3867 157.086 70.3945 157.086C72.043 157.086 73.3242 157.629 74.2383 158.715C75.1523 159.801 75.6094 161.355 75.6094 163.379V164.281H67.0195C67.0508 165.531 67.4141 166.543 68.1094 167.316C68.8125 168.082 69.7031 168.465 70.7812 168.465C71.5469 168.465 72.1953 168.309 72.7266 167.996C73.2578 167.684 73.7227 167.27 74.1211 166.754L75.4453 167.785C74.3828 169.418 72.7891 170.234 70.6641 170.234ZM70.3945 158.867C69.5195 158.867 68.7852 159.188 68.1914 159.828C67.5977 160.461 67.2305 161.352 67.0898 162.5H73.4414V162.336C73.3789 161.234 73.082 160.383 72.5508 159.781C72.0195 159.172 71.3008 158.867 70.3945 158.867ZM85.957 170C85.832 169.75 85.7305 169.305 85.6523 168.664C84.6445 169.711 83.4414 170.234 82.043 170.234C80.793 170.234 79.7656 169.883 78.9609 169.18C78.1641 168.469 77.7656 167.57 77.7656 166.484C77.7656 165.164 78.2656 164.141 79.2656 163.414C80.2734 162.68 81.6875 162.312 83.5078 162.312H85.6172V161.316C85.6172 160.559 85.3906 159.957 84.9375 159.512C84.4844 159.059 83.8164 158.832 82.9336 158.832C82.1602 158.832 81.5117 159.027 80.9883 159.418C80.4648 159.809 80.2031 160.281 80.2031 160.836H78.0234C78.0234 160.203 78.2461 159.594 78.6914 159.008C79.1445 158.414 79.7539 157.945 80.5195 157.602C81.293 157.258 82.1406 157.086 83.0625 157.086C84.5234 157.086 85.668 157.453 86.4961 158.188C87.3242 158.914 87.7539 159.918 87.7852 161.199V167.035C87.7852 168.199 87.9336 169.125 88.2305 169.812V170H85.957ZM82.3594 168.348C83.0391 168.348 83.6836 168.172 84.293 167.82C84.9023 167.469 85.3438 167.012 85.6172 166.449V163.848H83.918C81.2617 163.848 79.9336 164.625 79.9336 166.18C79.9336 166.859 80.1602 167.391 80.6133 167.773C81.0664 168.156 81.6484 168.348 82.3594 168.348ZM93.5391 170H91.3711V152H93.5391V170ZM102.457 163.555C102.457 161.578 102.914 160.008 103.828 158.844C104.742 157.672 105.953 157.086 107.461 157.086C109.008 157.086 110.215 157.633 111.082 158.727L111.188 157.32H113.168V169.695C113.168 171.336 112.68 172.629 111.703 173.574C110.734 174.52 109.43 174.992 107.789 174.992C106.875 174.992 105.98 174.797 105.105 174.406C104.23 174.016 103.562 173.48 103.102 172.801L104.227 171.5C105.156 172.648 106.293 173.223 107.637 173.223C108.691 173.223 109.512 172.926 110.098 172.332C110.691 171.738 110.988 170.902 110.988 169.824V168.734C110.121 169.734 108.938 170.234 107.438 170.234C105.953 170.234 104.75 169.637 103.828 168.441C102.914 167.246 102.457 165.617 102.457 163.555ZM104.637 163.801C104.637 165.23 104.93 166.355 105.516 167.176C106.102 167.988 106.922 168.395 107.977 168.395C109.344 168.395 110.348 167.773 110.988 166.531V160.742C110.324 159.531 109.328 158.926 108 158.926C106.945 158.926 106.121 159.336 105.527 160.156C104.934 160.977 104.637 162.191 104.637 163.801ZM124.277 168.746C123.434 169.738 122.195 170.234 120.562 170.234C119.211 170.234 118.18 169.844 117.469 169.062C116.766 168.273 116.41 167.109 116.402 165.57V157.32H118.57V165.512C118.57 167.434 119.352 168.395 120.914 168.395C122.57 168.395 123.672 167.777 124.219 166.543V157.32H126.387V170H124.324L124.277 168.746ZM134.953 170.234C133.234 170.234 131.836 169.672 130.758 168.547C129.68 167.414 129.141 165.902 129.141 164.012V163.613C129.141 162.355 129.379 161.234 129.855 160.25C130.34 159.258 131.012 158.484 131.871 157.93C132.738 157.367 133.676 157.086 134.684 157.086C136.332 157.086 137.613 157.629 138.527 158.715C139.441 159.801 139.898 161.355 139.898 163.379V164.281H131.309C131.34 165.531 131.703 166.543 132.398 167.316C133.102 168.082 133.992 168.465 135.07 168.465C135.836 168.465 136.484 168.309 137.016 167.996C137.547 167.684 138.012 167.27 138.41 166.754L139.734 167.785C138.672 169.418 137.078 170.234 134.953 170.234ZM134.684 158.867C133.809 158.867 133.074 159.188 132.48 159.828C131.887 160.461 131.52 161.352 131.379 162.5H137.73V162.336C137.668 161.234 137.371 160.383 136.84 159.781C136.309 159.172 135.59 158.867 134.684 158.867ZM149.801 166.637C149.801 166.051 149.578 165.598 149.133 165.277C148.695 164.949 147.926 164.668 146.824 164.434C145.73 164.199 144.859 163.918 144.211 163.59C143.57 163.262 143.094 162.871 142.781 162.418C142.477 161.965 142.324 161.426 142.324 160.801C142.324 159.762 142.762 158.883 143.637 158.164C144.52 157.445 145.645 157.086 147.012 157.086C148.449 157.086 149.613 157.457 150.504 158.199C151.402 158.941 151.852 159.891 151.852 161.047H149.672C149.672 160.453 149.418 159.941 148.91 159.512C148.41 159.082 147.777 158.867 147.012 158.867C146.223 158.867 145.605 159.039 145.16 159.383C144.715 159.727 144.492 160.176 144.492 160.73C144.492 161.254 144.699 161.648 145.113 161.914C145.527 162.18 146.273 162.434 147.352 162.676C148.438 162.918 149.316 163.207 149.988 163.543C150.66 163.879 151.156 164.285 151.477 164.762C151.805 165.23 151.969 165.805 151.969 166.484C151.969 167.617 151.516 168.527 150.609 169.215C149.703 169.895 148.527 170.234 147.082 170.234C146.066 170.234 145.168 170.055 144.387 169.695C143.605 169.336 142.992 168.836 142.547 168.195C142.109 167.547 141.891 166.848 141.891 166.098H144.059C144.098 166.824 144.387 167.402 144.926 167.832C145.473 168.254 146.191 168.465 147.082 168.465C147.902 168.465 148.559 168.301 149.051 167.973C149.551 167.637 149.801 167.191 149.801 166.637ZM157.734 154.25V157.32H160.102V158.996H157.734V166.859C157.734 167.367 157.84 167.75 158.051 168.008C158.262 168.258 158.621 168.383 159.129 168.383C159.379 168.383 159.723 168.336 160.16 168.242V170C159.59 170.156 159.035 170.234 158.496 170.234C157.527 170.234 156.797 169.941 156.305 169.355C155.812 168.77 155.566 167.938 155.566 166.859V158.996H153.258V157.32H155.566V154.25H157.734ZM174.727 159.266C174.398 159.211 174.043 159.184 173.66 159.184C172.238 159.184 171.273 159.789 170.766 161V170H168.598V157.32H170.707L170.742 158.785C171.453 157.652 172.461 157.086 173.766 157.086C174.188 157.086 174.508 157.141 174.727 157.25V159.266ZM181.758 170.234C180.039 170.234 178.641 169.672 177.562 168.547C176.484 167.414 175.945 165.902 175.945 164.012V163.613C175.945 162.355 176.184 161.234 176.66 160.25C177.145 159.258 177.816 158.484 178.676 157.93C179.543 157.367 180.48 157.086 181.488 157.086C183.137 157.086 184.418 157.629 185.332 158.715C186.246 159.801 186.703 161.355 186.703 163.379V164.281H178.113C178.145 165.531 178.508 166.543 179.203 167.316C179.906 168.082 180.797 168.465 181.875 168.465C182.641 168.465 183.289 168.309 183.82 167.996C184.352 167.684 184.816 167.27 185.215 166.754L186.539 167.785C185.477 169.418 183.883 170.234 181.758 170.234ZM181.488 158.867C180.613 158.867 179.879 159.188 179.285 159.828C178.691 160.461 178.324 161.352 178.184 162.5H184.535V162.336C184.473 161.234 184.176 160.383 183.645 159.781C183.113 159.172 182.395 158.867 181.488 158.867ZM193.242 167.059L196.383 157.32H198.598L194.051 170H192.398L187.805 157.32H190.02L193.242 167.059ZM203.039 170H200.871V157.32H203.039V170ZM200.695 153.957C200.695 153.605 200.801 153.309 201.012 153.066C201.23 152.824 201.551 152.703 201.973 152.703C202.395 152.703 202.715 152.824 202.934 153.066C203.152 153.309 203.262 153.605 203.262 153.957C203.262 154.309 203.152 154.602 202.934 154.836C202.715 155.07 202.395 155.188 201.973 155.188C201.551 155.188 201.23 155.07 201.012 154.836C200.801 154.602 200.695 154.309 200.695 153.957ZM211.781 170.234C210.062 170.234 208.664 169.672 207.586 168.547C206.508 167.414 205.969 165.902 205.969 164.012V163.613C205.969 162.355 206.207 161.234 206.684 160.25C207.168 159.258 207.84 158.484 208.699 157.93C209.566 157.367 210.504 157.086 211.512 157.086C213.16 157.086 214.441 157.629 215.355 158.715C216.27 159.801 216.727 161.355 216.727 163.379V164.281H208.137C208.168 165.531 208.531 166.543 209.227 167.316C209.93 168.082 210.82 168.465 211.898 168.465C212.664 168.465 213.312 168.309 213.844 167.996C214.375 167.684 214.84 167.27 215.238 166.754L216.562 167.785C215.5 169.418 213.906 170.234 211.781 170.234ZM211.512 158.867C210.637 158.867 209.902 159.188 209.309 159.828C208.715 160.461 208.348 161.352 208.207 162.5H214.559V162.336C214.496 161.234 214.199 160.383 213.668 159.781C213.137 159.172 212.418 158.867 211.512 158.867ZM230.473 167.012L232.91 157.32H235.078L231.387 170H229.629L226.547 160.391L223.547 170H221.789L218.109 157.32H220.266L222.762 166.812L225.715 157.32H227.461L230.473 167.012ZM244.676 166.637C244.676 166.051 244.453 165.598 244.008 165.277C243.57 164.949 242.801 164.668 241.699 164.434C240.605 164.199 239.734 163.918 239.086 163.59C238.445 163.262 237.969 162.871 237.656 162.418C237.352 161.965 237.199 161.426 237.199 160.801C237.199 159.762 237.637 158.883 238.512 158.164C239.395 157.445 240.52 157.086 241.887 157.086C243.324 157.086 244.488 157.457 245.379 158.199C246.277 158.941 246.727 159.891 246.727 161.047H244.547C244.547 160.453 244.293 159.941 243.785 159.512C243.285 159.082 242.652 158.867 241.887 158.867C241.098 158.867 240.48 159.039 240.035 159.383C239.59 159.727 239.367 160.176 239.367 160.73C239.367 161.254 239.574 161.648 239.988 161.914C240.402 162.18 241.148 162.434 242.227 162.676C243.312 162.918 244.191 163.207 244.863 163.543C245.535 163.879 246.031 164.285 246.352 164.762C246.68 165.23 246.844 165.805 246.844 166.484C246.844 167.617 246.391 168.527 245.484 169.215C244.578 169.895 243.402 170.234 241.957 170.234C240.941 170.234 240.043 170.055 239.262 169.695C238.48 169.336 237.867 168.836 237.422 168.195C236.984 167.547 236.766 166.848 236.766 166.098H238.934C238.973 166.824 239.262 167.402 239.801 167.832C240.348 168.254 241.066 168.465 241.957 168.465C242.777 168.465 243.434 168.301 243.926 167.973C244.426 167.637 244.676 167.191 244.676 166.637Z" fill="#383838"/>
        <path d="M185.5 33.3333H159.208L163.167 14.2916L163.292 12.9583C163.292 11.25 162.583 9.66663 161.458 8.54163L157.042 4.16663L129.625 31.625C128.083 33.125 127.167 35.2083 127.167 37.5V79.1666C127.167 83.75 130.917 87.5 135.5 87.5H173C176.458 87.5 179.417 85.4166 180.667 82.4166L193.25 53.0416C193.625 52.0833 193.833 51.0833 193.833 50V41.6666C193.833 37.0833 190.083 33.3333 185.5 33.3333ZM185.5 50L173 79.1666H135.5V37.5L153.583 19.4166L148.958 41.6666H185.5V50ZM102.167 37.5H118.833V87.5H102.167V37.5Z" fill="#3077C6"/>
    </symbol>

    <symbol id="hotel" viewBox="0 0 296 435">
        <path d="M16.0938 343H13.832V335.113H5.23047V343H2.98047V325.938H5.23047V333.273H13.832V325.938H16.0938V343ZM19.1758 336.543C19.1758 335.301 19.418 334.184 19.9023 333.191C20.3945 332.199 21.0742 331.434 21.9414 330.895C22.8164 330.355 23.8125 330.086 24.9297 330.086C26.6562 330.086 28.0508 330.684 29.1133 331.879C30.1836 333.074 30.7188 334.664 30.7188 336.648V336.801C30.7188 338.035 30.4805 339.145 30.0039 340.129C29.5352 341.105 28.8594 341.867 27.9766 342.414C27.1016 342.961 26.0938 343.234 24.9531 343.234C23.2344 343.234 21.8398 342.637 20.7695 341.441C19.707 340.246 19.1758 338.664 19.1758 336.695V336.543ZM21.3555 336.801C21.3555 338.207 21.6797 339.336 22.3281 340.188C22.9844 341.039 23.8594 341.465 24.9531 341.465C26.0547 341.465 26.9297 341.035 27.5781 340.176C28.2266 339.309 28.5508 338.098 28.5508 336.543C28.5508 335.152 28.2188 334.027 27.5547 333.168C26.8984 332.301 26.0234 331.867 24.9297 331.867C23.8594 331.867 22.9961 332.293 22.3398 333.145C21.6836 333.996 21.3555 335.215 21.3555 336.801ZM36.3789 327.25V330.32H38.7461V331.996H36.3789V339.859C36.3789 340.367 36.4844 340.75 36.6953 341.008C36.9062 341.258 37.2656 341.383 37.7734 341.383C38.0234 341.383 38.3672 341.336 38.8047 341.242V343C38.2344 343.156 37.6797 343.234 37.1406 343.234C36.1719 343.234 35.4414 342.941 34.9492 342.355C34.457 341.77 34.2109 340.938 34.2109 339.859V331.996H31.9023V330.32H34.2109V327.25H36.3789ZM46.5508 343.234C44.832 343.234 43.4336 342.672 42.3555 341.547C41.2773 340.414 40.7383 338.902 40.7383 337.012V336.613C40.7383 335.355 40.9766 334.234 41.4531 333.25C41.9375 332.258 42.6094 331.484 43.4688 330.93C44.3359 330.367 45.2734 330.086 46.2812 330.086C47.9297 330.086 49.2109 330.629 50.125 331.715C51.0391 332.801 51.4961 334.355 51.4961 336.379V337.281H42.9062C42.9375 338.531 43.3008 339.543 43.9961 340.316C44.6992 341.082 45.5898 341.465 46.668 341.465C47.4336 341.465 48.082 341.309 48.6133 340.996C49.1445 340.684 49.6094 340.27 50.0078 339.754L51.332 340.785C50.2695 342.418 48.6758 343.234 46.5508 343.234ZM46.2812 331.867C45.4062 331.867 44.6719 332.188 44.0781 332.828C43.4844 333.461 43.1172 334.352 42.9766 335.5H49.3281V335.336C49.2656 334.234 48.9688 333.383 48.4375 332.781C47.9062 332.172 47.1875 331.867 46.2812 331.867ZM56.3711 343H54.2031V325H56.3711V343ZM68.4062 341.16H76.4922V343H66.1445V325.938H68.4062V341.16ZM83.9805 343.234C82.2617 343.234 80.8633 342.672 79.7852 341.547C78.707 340.414 78.168 338.902 78.168 337.012V336.613C78.168 335.355 78.4062 334.234 78.8828 333.25C79.3672 332.258 80.0391 331.484 80.8984 330.93C81.7656 330.367 82.7031 330.086 83.7109 330.086C85.3594 330.086 86.6406 330.629 87.5547 331.715C88.4688 332.801 88.9258 334.355 88.9258 336.379V337.281H80.3359C80.3672 338.531 80.7305 339.543 81.4258 340.316C82.1289 341.082 83.0195 341.465 84.0977 341.465C84.8633 341.465 85.5117 341.309 86.043 340.996C86.5742 340.684 87.0391 340.27 87.4375 339.754L88.7617 340.785C87.6992 342.418 86.1055 343.234 83.9805 343.234ZM83.7109 331.867C82.8359 331.867 82.1016 332.188 81.5078 332.828C80.9141 333.461 80.5469 334.352 80.4062 335.5H86.7578V335.336C86.6953 334.234 86.3984 333.383 85.8672 332.781C85.3359 332.172 84.6172 331.867 83.7109 331.867ZM90.8711 336.543C90.8711 335.301 91.1133 334.184 91.5977 333.191C92.0898 332.199 92.7695 331.434 93.6367 330.895C94.5117 330.355 95.5078 330.086 96.625 330.086C98.3516 330.086 99.7461 330.684 100.809 331.879C101.879 333.074 102.414 334.664 102.414 336.648V336.801C102.414 338.035 102.176 339.145 101.699 340.129C101.23 341.105 100.555 341.867 99.6719 342.414C98.7969 342.961 97.7891 343.234 96.6484 343.234C94.9297 343.234 93.5352 342.637 92.4648 341.441C91.4023 340.246 90.8711 338.664 90.8711 336.695V336.543ZM93.0508 336.801C93.0508 338.207 93.375 339.336 94.0234 340.188C94.6797 341.039 95.5547 341.465 96.6484 341.465C97.75 341.465 98.625 341.035 99.2734 340.176C99.9219 339.309 100.246 338.098 100.246 336.543C100.246 335.152 99.9141 334.027 99.25 333.168C98.5938 332.301 97.7188 331.867 96.625 331.867C95.5547 331.867 94.6914 332.293 94.0352 333.145C93.3789 333.996 93.0508 335.215 93.0508 336.801ZM115.844 336.801C115.844 338.73 115.402 340.285 114.52 341.465C113.637 342.645 112.441 343.234 110.934 343.234C109.395 343.234 108.184 342.746 107.301 341.77V347.875H105.133V330.32H107.113L107.219 331.727C108.102 330.633 109.328 330.086 110.898 330.086C112.422 330.086 113.625 330.66 114.508 331.809C115.398 332.957 115.844 334.555 115.844 336.602V336.801ZM113.676 336.555C113.676 335.125 113.371 333.996 112.762 333.168C112.152 332.34 111.316 331.926 110.254 331.926C108.941 331.926 107.957 332.508 107.301 333.672V339.73C107.949 340.887 108.941 341.465 110.277 341.465C111.316 341.465 112.141 341.055 112.75 340.234C113.367 339.406 113.676 338.18 113.676 336.555ZM118.035 336.543C118.035 335.301 118.277 334.184 118.762 333.191C119.254 332.199 119.934 331.434 120.801 330.895C121.676 330.355 122.672 330.086 123.789 330.086C125.516 330.086 126.91 330.684 127.973 331.879C129.043 333.074 129.578 334.664 129.578 336.648V336.801C129.578 338.035 129.34 339.145 128.863 340.129C128.395 341.105 127.719 341.867 126.836 342.414C125.961 342.961 124.953 343.234 123.812 343.234C122.094 343.234 120.699 342.637 119.629 341.441C118.566 340.246 118.035 338.664 118.035 336.695V336.543ZM120.215 336.801C120.215 338.207 120.539 339.336 121.188 340.188C121.844 341.039 122.719 341.465 123.812 341.465C124.914 341.465 125.789 341.035 126.438 340.176C127.086 339.309 127.41 338.098 127.41 336.543C127.41 335.152 127.078 334.027 126.414 333.168C125.758 332.301 124.883 331.867 123.789 331.867C122.719 331.867 121.855 332.293 121.199 333.145C120.543 333.996 120.215 335.215 120.215 336.801ZM134.652 343H132.484V325H134.652V343ZM137.605 336.555C137.605 334.609 138.066 333.047 138.988 331.867C139.91 330.68 141.117 330.086 142.609 330.086C144.094 330.086 145.27 330.594 146.137 331.609V325H148.305V343H146.312L146.207 341.641C145.34 342.703 144.133 343.234 142.586 343.234C141.117 343.234 139.918 342.633 138.988 341.43C138.066 340.227 137.605 338.656 137.605 336.719V336.555ZM139.773 336.801C139.773 338.238 140.07 339.363 140.664 340.176C141.258 340.988 142.078 341.395 143.125 341.395C144.5 341.395 145.504 340.777 146.137 339.543V333.719C145.488 332.523 144.492 331.926 143.148 331.926C142.086 331.926 141.258 332.336 140.664 333.156C140.07 333.977 139.773 335.191 139.773 336.801Z" fill="#3077C6"/>
        <path d="M8.00781 389.395C6.07812 388.84 4.67188 388.16 3.78906 387.355C2.91406 386.543 2.47656 385.543 2.47656 384.355C2.47656 383.012 3.01172 381.902 4.08203 381.027C5.16016 380.145 6.55859 379.703 8.27734 379.703C9.44922 379.703 10.4922 379.93 11.4062 380.383C12.3281 380.836 13.0391 381.461 13.5391 382.258C14.0469 383.055 14.3008 383.926 14.3008 384.871H12.0391C12.0391 383.84 11.7109 383.031 11.0547 382.445C10.3984 381.852 9.47266 381.555 8.27734 381.555C7.16797 381.555 6.30078 381.801 5.67578 382.293C5.05859 382.777 4.75 383.453 4.75 384.32C4.75 385.016 5.04297 385.605 5.62891 386.09C6.22266 386.566 7.22656 387.004 8.64062 387.402C10.0625 387.801 11.1719 388.242 11.9688 388.727C12.7734 389.203 13.3672 389.762 13.75 390.402C14.1406 391.043 14.3359 391.797 14.3359 392.664C14.3359 394.047 13.7969 395.156 12.7188 395.992C11.6406 396.82 10.1992 397.234 8.39453 397.234C7.22266 397.234 6.12891 397.012 5.11328 396.566C4.09766 396.113 3.3125 395.496 2.75781 394.715C2.21094 393.934 1.9375 393.047 1.9375 392.055H4.19922C4.19922 393.086 4.57812 393.902 5.33594 394.504C6.10156 395.098 7.12109 395.395 8.39453 395.395C9.58203 395.395 10.4922 395.152 11.125 394.668C11.7578 394.184 12.0742 393.523 12.0742 392.688C12.0742 391.852 11.7812 391.207 11.1953 390.754C10.6094 390.293 9.54688 389.84 8.00781 389.395ZM24.7188 397C24.5938 396.75 24.4922 396.305 24.4141 395.664C23.4062 396.711 22.2031 397.234 20.8047 397.234C19.5547 397.234 18.5273 396.883 17.7227 396.18C16.9258 395.469 16.5273 394.57 16.5273 393.484C16.5273 392.164 17.0273 391.141 18.0273 390.414C19.0352 389.68 20.4492 389.312 22.2695 389.312H24.3789V388.316C24.3789 387.559 24.1523 386.957 23.6992 386.512C23.2461 386.059 22.5781 385.832 21.6953 385.832C20.9219 385.832 20.2734 386.027 19.75 386.418C19.2266 386.809 18.9648 387.281 18.9648 387.836H16.7852C16.7852 387.203 17.0078 386.594 17.4531 386.008C17.9062 385.414 18.5156 384.945 19.2812 384.602C20.0547 384.258 20.9023 384.086 21.8242 384.086C23.2852 384.086 24.4297 384.453 25.2578 385.188C26.0859 385.914 26.5156 386.918 26.5469 388.199V394.035C26.5469 395.199 26.6953 396.125 26.9922 396.812V397H24.7188ZM21.1211 395.348C21.8008 395.348 22.4453 395.172 23.0547 394.82C23.6641 394.469 24.1055 394.012 24.3789 393.449V390.848H22.6797C20.0234 390.848 18.6953 391.625 18.6953 393.18C18.6953 393.859 18.9219 394.391 19.375 394.773C19.8281 395.156 20.4102 395.348 21.1211 395.348ZM32.3008 397H30.1328V384.32H32.3008V397ZM29.957 380.957C29.957 380.605 30.0625 380.309 30.2734 380.066C30.4922 379.824 30.8125 379.703 31.2344 379.703C31.6562 379.703 31.9766 379.824 32.1953 380.066C32.4141 380.309 32.5234 380.605 32.5234 380.957C32.5234 381.309 32.4141 381.602 32.1953 381.836C31.9766 382.07 31.6562 382.188 31.2344 382.188C30.8125 382.188 30.4922 382.07 30.2734 381.836C30.0625 381.602 29.957 381.309 29.957 380.957ZM37.832 384.32L37.9023 385.914C38.8711 384.695 40.1367 384.086 41.6992 384.086C44.3789 384.086 45.7305 385.598 45.7539 388.621V397H43.5859V388.609C43.5781 387.695 43.3672 387.02 42.9531 386.582C42.5469 386.145 41.9102 385.926 41.043 385.926C40.3398 385.926 39.7227 386.113 39.1914 386.488C38.6602 386.863 38.2461 387.355 37.9492 387.965V397H35.7812V384.32H37.832ZM51.9648 381.25V384.32H54.332V385.996H51.9648V393.859C51.9648 394.367 52.0703 394.75 52.2812 395.008C52.4922 395.258 52.8516 395.383 53.3594 395.383C53.6094 395.383 53.9531 395.336 54.3906 395.242V397C53.8203 397.156 53.2656 397.234 52.7266 397.234C51.7578 397.234 51.0273 396.941 50.5352 396.355C50.043 395.77 49.7969 394.938 49.7969 393.859V385.996H47.4883V384.32H49.7969V381.25H51.9648ZM65.418 390.32V397H63.168V379.938H69.4609C71.3281 379.938 72.7891 380.414 73.8438 381.367C74.9062 382.32 75.4375 383.582 75.4375 385.152C75.4375 386.809 74.918 388.086 73.8789 388.984C72.8477 389.875 71.3672 390.32 69.4375 390.32H65.418ZM65.418 388.48H69.4609C70.6641 388.48 71.5859 388.199 72.2266 387.637C72.8672 387.066 73.1875 386.246 73.1875 385.176C73.1875 384.16 72.8672 383.348 72.2266 382.738C71.5859 382.129 70.707 381.812 69.5898 381.789H65.418V388.48ZM83.0664 397.234C81.3477 397.234 79.9492 396.672 78.8711 395.547C77.793 394.414 77.2539 392.902 77.2539 391.012V390.613C77.2539 389.355 77.4922 388.234 77.9688 387.25C78.4531 386.258 79.125 385.484 79.9844 384.93C80.8516 384.367 81.7891 384.086 82.7969 384.086C84.4453 384.086 85.7266 384.629 86.6406 385.715C87.5547 386.801 88.0117 388.355 88.0117 390.379V391.281H79.4219C79.4531 392.531 79.8164 393.543 80.5117 394.316C81.2148 395.082 82.1055 395.465 83.1836 395.465C83.9492 395.465 84.5977 395.309 85.1289 394.996C85.6602 394.684 86.125 394.27 86.5234 393.754L87.8477 394.785C86.7852 396.418 85.1914 397.234 83.0664 397.234ZM82.7969 385.867C81.9219 385.867 81.1875 386.188 80.5938 386.828C80 387.461 79.6328 388.352 79.4922 389.5H85.8438V389.336C85.7812 388.234 85.4844 387.383 84.9531 386.781C84.4219 386.172 83.7031 385.867 82.7969 385.867ZM93.4727 381.25V384.32H95.8398V385.996H93.4727V393.859C93.4727 394.367 93.5781 394.75 93.7891 395.008C94 395.258 94.3594 395.383 94.8672 395.383C95.1172 395.383 95.4609 395.336 95.8984 395.242V397C95.3281 397.156 94.7734 397.234 94.2344 397.234C93.2656 397.234 92.5352 396.941 92.043 396.355C91.5508 395.77 91.3047 394.938 91.3047 393.859V385.996H88.9961V384.32H91.3047V381.25H93.4727ZM103.645 397.234C101.926 397.234 100.527 396.672 99.4492 395.547C98.3711 394.414 97.832 392.902 97.832 391.012V390.613C97.832 389.355 98.0703 388.234 98.5469 387.25C99.0312 386.258 99.7031 385.484 100.562 384.93C101.43 384.367 102.367 384.086 103.375 384.086C105.023 384.086 106.305 384.629 107.219 385.715C108.133 386.801 108.59 388.355 108.59 390.379V391.281H100C100.031 392.531 100.395 393.543 101.09 394.316C101.793 395.082 102.684 395.465 103.762 395.465C104.527 395.465 105.176 395.309 105.707 394.996C106.238 394.684 106.703 394.27 107.102 393.754L108.426 394.785C107.363 396.418 105.77 397.234 103.645 397.234ZM103.375 385.867C102.5 385.867 101.766 386.188 101.172 386.828C100.578 387.461 100.211 388.352 100.07 389.5H106.422V389.336C106.359 388.234 106.062 387.383 105.531 386.781C105 386.172 104.281 385.867 103.375 385.867ZM117.238 386.266C116.91 386.211 116.555 386.184 116.172 386.184C114.75 386.184 113.785 386.789 113.277 388V397H111.109V384.32H113.219L113.254 385.785C113.965 384.652 114.973 384.086 116.277 384.086C116.699 384.086 117.02 384.141 117.238 384.25V386.266ZM126.625 393.637C126.625 393.051 126.402 392.598 125.957 392.277C125.52 391.949 124.75 391.668 123.648 391.434C122.555 391.199 121.684 390.918 121.035 390.59C120.395 390.262 119.918 389.871 119.605 389.418C119.301 388.965 119.148 388.426 119.148 387.801C119.148 386.762 119.586 385.883 120.461 385.164C121.344 384.445 122.469 384.086 123.836 384.086C125.273 384.086 126.438 384.457 127.328 385.199C128.227 385.941 128.676 386.891 128.676 388.047H126.496C126.496 387.453 126.242 386.941 125.734 386.512C125.234 386.082 124.602 385.867 123.836 385.867C123.047 385.867 122.43 386.039 121.984 386.383C121.539 386.727 121.316 387.176 121.316 387.73C121.316 388.254 121.523 388.648 121.938 388.914C122.352 389.18 123.098 389.434 124.176 389.676C125.262 389.918 126.141 390.207 126.812 390.543C127.484 390.879 127.98 391.285 128.301 391.762C128.629 392.23 128.793 392.805 128.793 393.484C128.793 394.617 128.34 395.527 127.434 396.215C126.527 396.895 125.352 397.234 123.906 397.234C122.891 397.234 121.992 397.055 121.211 396.695C120.43 396.336 119.816 395.836 119.371 395.195C118.934 394.547 118.715 393.848 118.715 393.098H120.883C120.922 393.824 121.211 394.402 121.75 394.832C122.297 395.254 123.016 395.465 123.906 395.465C124.727 395.465 125.383 395.301 125.875 394.973C126.375 394.637 126.625 394.191 126.625 393.637ZM142.352 390.801C142.352 392.738 141.906 394.297 141.016 395.477C140.125 396.648 138.93 397.234 137.43 397.234C135.828 397.234 134.59 396.668 133.715 395.535L133.609 397H131.617V379H133.785V385.715C134.66 384.629 135.867 384.086 137.406 384.086C138.945 384.086 140.152 384.668 141.027 385.832C141.91 386.996 142.352 388.59 142.352 390.613V390.801ZM140.184 390.555C140.184 389.078 139.898 387.938 139.328 387.133C138.758 386.328 137.938 385.926 136.867 385.926C135.438 385.926 134.41 386.59 133.785 387.918V393.402C134.449 394.73 135.484 395.395 136.891 395.395C137.93 395.395 138.738 394.992 139.316 394.188C139.895 393.383 140.184 392.172 140.184 390.555ZM152.922 395.746C152.078 396.738 150.84 397.234 149.207 397.234C147.855 397.234 146.824 396.844 146.113 396.062C145.41 395.273 145.055 394.109 145.047 392.57V384.32H147.215V392.512C147.215 394.434 147.996 395.395 149.559 395.395C151.215 395.395 152.316 394.777 152.863 393.543V384.32H155.031V397H152.969L152.922 395.746ZM164.465 386.266C164.137 386.211 163.781 386.184 163.398 386.184C161.977 386.184 161.012 386.789 160.504 388V397H158.336V384.32H160.445L160.48 385.785C161.191 384.652 162.199 384.086 163.504 384.086C163.926 384.086 164.246 384.141 164.465 384.25V386.266ZM165.719 390.555C165.719 388.578 166.176 387.008 167.09 385.844C168.004 384.672 169.215 384.086 170.723 384.086C172.27 384.086 173.477 384.633 174.344 385.727L174.449 384.32H176.43V396.695C176.43 398.336 175.941 399.629 174.965 400.574C173.996 401.52 172.691 401.992 171.051 401.992C170.137 401.992 169.242 401.797 168.367 401.406C167.492 401.016 166.824 400.48 166.363 399.801L167.488 398.5C168.418 399.648 169.555 400.223 170.898 400.223C171.953 400.223 172.773 399.926 173.359 399.332C173.953 398.738 174.25 397.902 174.25 396.824V395.734C173.383 396.734 172.199 397.234 170.699 397.234C169.215 397.234 168.012 396.637 167.09 395.441C166.176 394.246 165.719 392.617 165.719 390.555ZM167.898 390.801C167.898 392.23 168.191 393.355 168.777 394.176C169.363 394.988 170.184 395.395 171.238 395.395C172.605 395.395 173.609 394.773 174.25 393.531V387.742C173.586 386.531 172.59 385.926 171.262 385.926C170.207 385.926 169.383 386.336 168.789 387.156C168.195 387.977 167.898 389.191 167.898 390.801ZM179.641 400.398L178.41 399.555C179.145 398.531 179.527 397.477 179.559 396.391V394.434H181.68V396.133C181.68 396.922 181.484 397.711 181.094 398.5C180.711 399.289 180.227 399.922 179.641 400.398ZM196.973 390.098H192.965V397H190.703V379.938H196.352C198.273 379.938 199.75 380.375 200.781 381.25C201.82 382.125 202.34 383.398 202.34 385.07C202.34 386.133 202.051 387.059 201.473 387.848C200.902 388.637 200.105 389.227 199.082 389.617L203.09 396.859V397H200.676L196.973 390.098ZM192.965 388.258H196.422C197.539 388.258 198.426 387.969 199.082 387.391C199.746 386.812 200.078 386.039 200.078 385.07C200.078 384.016 199.762 383.207 199.129 382.645C198.504 382.082 197.598 381.797 196.41 381.789H192.965V388.258ZM212.992 395.746C212.148 396.738 210.91 397.234 209.277 397.234C207.926 397.234 206.895 396.844 206.184 396.062C205.48 395.273 205.125 394.109 205.117 392.57V384.32H207.285V392.512C207.285 394.434 208.066 395.395 209.629 395.395C211.285 395.395 212.387 394.777 212.934 393.543V384.32H215.102V397H213.039L212.992 395.746ZM225.789 393.637C225.789 393.051 225.566 392.598 225.121 392.277C224.684 391.949 223.914 391.668 222.812 391.434C221.719 391.199 220.848 390.918 220.199 390.59C219.559 390.262 219.082 389.871 218.77 389.418C218.465 388.965 218.312 388.426 218.312 387.801C218.312 386.762 218.75 385.883 219.625 385.164C220.508 384.445 221.633 384.086 223 384.086C224.438 384.086 225.602 384.457 226.492 385.199C227.391 385.941 227.84 386.891 227.84 388.047H225.66C225.66 387.453 225.406 386.941 224.898 386.512C224.398 386.082 223.766 385.867 223 385.867C222.211 385.867 221.594 386.039 221.148 386.383C220.703 386.727 220.48 387.176 220.48 387.73C220.48 388.254 220.688 388.648 221.102 388.914C221.516 389.18 222.262 389.434 223.34 389.676C224.426 389.918 225.305 390.207 225.977 390.543C226.648 390.879 227.145 391.285 227.465 391.762C227.793 392.23 227.957 392.805 227.957 393.484C227.957 394.617 227.504 395.527 226.598 396.215C225.691 396.895 224.516 397.234 223.07 397.234C222.055 397.234 221.156 397.055 220.375 396.695C219.594 396.336 218.98 395.836 218.535 395.195C218.098 394.547 217.879 393.848 217.879 393.098H220.047C220.086 393.824 220.375 394.402 220.914 394.832C221.461 395.254 222.18 395.465 223.07 395.465C223.891 395.465 224.547 395.301 225.039 394.973C225.539 394.637 225.789 394.191 225.789 393.637ZM238.164 393.637C238.164 393.051 237.941 392.598 237.496 392.277C237.059 391.949 236.289 391.668 235.188 391.434C234.094 391.199 233.223 390.918 232.574 390.59C231.934 390.262 231.457 389.871 231.145 389.418C230.84 388.965 230.688 388.426 230.688 387.801C230.688 386.762 231.125 385.883 232 385.164C232.883 384.445 234.008 384.086 235.375 384.086C236.812 384.086 237.977 384.457 238.867 385.199C239.766 385.941 240.215 386.891 240.215 388.047H238.035C238.035 387.453 237.781 386.941 237.273 386.512C236.773 386.082 236.141 385.867 235.375 385.867C234.586 385.867 233.969 386.039 233.523 386.383C233.078 386.727 232.855 387.176 232.855 387.73C232.855 388.254 233.062 388.648 233.477 388.914C233.891 389.18 234.637 389.434 235.715 389.676C236.801 389.918 237.68 390.207 238.352 390.543C239.023 390.879 239.52 391.285 239.84 391.762C240.168 392.23 240.332 392.805 240.332 393.484C240.332 394.617 239.879 395.527 238.973 396.215C238.066 396.895 236.891 397.234 235.445 397.234C234.43 397.234 233.531 397.055 232.75 396.695C231.969 396.336 231.355 395.836 230.91 395.195C230.473 394.547 230.254 393.848 230.254 393.098H232.422C232.461 393.824 232.75 394.402 233.289 394.832C233.836 395.254 234.555 395.465 235.445 395.465C236.266 395.465 236.922 395.301 237.414 394.973C237.914 394.637 238.164 394.191 238.164 393.637ZM245.512 397H243.344V384.32H245.512V397ZM243.168 380.957C243.168 380.605 243.273 380.309 243.484 380.066C243.703 379.824 244.023 379.703 244.445 379.703C244.867 379.703 245.188 379.824 245.406 380.066C245.625 380.309 245.734 380.605 245.734 380.957C245.734 381.309 245.625 381.602 245.406 381.836C245.188 382.07 244.867 382.188 244.445 382.188C244.023 382.188 243.703 382.07 243.484 381.836C243.273 381.602 243.168 381.309 243.168 380.957ZM256.82 397C256.695 396.75 256.594 396.305 256.516 395.664C255.508 396.711 254.305 397.234 252.906 397.234C251.656 397.234 250.629 396.883 249.824 396.18C249.027 395.469 248.629 394.57 248.629 393.484C248.629 392.164 249.129 391.141 250.129 390.414C251.137 389.68 252.551 389.312 254.371 389.312H256.48V388.316C256.48 387.559 256.254 386.957 255.801 386.512C255.348 386.059 254.68 385.832 253.797 385.832C253.023 385.832 252.375 386.027 251.852 386.418C251.328 386.809 251.066 387.281 251.066 387.836H248.887C248.887 387.203 249.109 386.594 249.555 386.008C250.008 385.414 250.617 384.945 251.383 384.602C252.156 384.258 253.004 384.086 253.926 384.086C255.387 384.086 256.531 384.453 257.359 385.188C258.188 385.914 258.617 386.918 258.648 388.199V394.035C258.648 395.199 258.797 396.125 259.094 396.812V397H256.82ZM253.223 395.348C253.902 395.348 254.547 395.172 255.156 394.82C255.766 394.469 256.207 394.012 256.48 393.449V390.848H254.781C252.125 390.848 250.797 391.625 250.797 393.18C250.797 393.859 251.023 394.391 251.477 394.773C251.93 395.156 252.512 395.348 253.223 395.348Z" fill="#BFBFBF"/>
    </symbol>

    <symbol id="arrow" viewBox="0 0 48 48" fill="none" xmlns="http://www.w3.org/2000/svg">
        <circle cx="24" cy="20" r="20" fill="#F3F3F4"/>
        <path d="M19.9412 29.8235L26.1 21.6118C26.6333 20.9007 26.6333 19.9229 26.1 19.2118L19.9412 11" stroke="#383838" stroke-width="2"/>
    </symbol>

    <symbol id="maldives" viewBox="0 0 295 295" xmlns="http://www.w3.org/2000/svg">
        <rect y="0.0146484" width="294.679" height="294.679" fill="url(#pattern0)"/>
    </symbol>

    <symbol id="book_now" viewBox="0 0 128 48" width="128" height="48">
        <rect x="0.5" y="0.5" width="127" height="47" rx="7.5" fill="white" stroke="#3077C6"/>
        <path d="M25.9521 30V17.2031H30.1357C31.5244 17.2031 32.5674 17.4902 33.2646 18.0645C33.9678 18.6387 34.3193 19.4883 34.3193 20.6133C34.3193 21.2109 34.1494 21.7412 33.8096 22.2041C33.4697 22.6611 33.0068 23.0156 32.4209 23.2676C33.1123 23.4609 33.6572 23.8301 34.0557 24.375C34.46 24.9141 34.6621 25.5586 34.6621 26.3086C34.6621 27.457 34.29 28.3594 33.5459 29.0156C32.8018 29.6719 31.75 30 30.3906 30H25.9521ZM27.6396 24.0146V28.6201H30.4258C31.2109 28.6201 31.8291 28.418 32.2803 28.0137C32.7373 27.6035 32.9658 27.041 32.9658 26.3262C32.9658 24.7852 32.1279 24.0146 30.4521 24.0146H27.6396ZM27.6396 22.6611H30.1885C30.9268 22.6611 31.5156 22.4766 31.9551 22.1074C32.4004 21.7383 32.623 21.2373 32.623 20.6045C32.623 19.9014 32.418 19.3916 32.0078 19.0752C31.5977 18.7529 30.9736 18.5918 30.1357 18.5918H27.6396V22.6611ZM36.4814 25.1572C36.4814 24.2256 36.6631 23.3877 37.0264 22.6436C37.3955 21.8994 37.9053 21.3252 38.5557 20.9209C39.2119 20.5166 39.959 20.3145 40.7969 20.3145C42.0918 20.3145 43.1377 20.7627 43.9346 21.6592C44.7373 22.5557 45.1387 23.748 45.1387 25.2363V25.3506C45.1387 26.2764 44.96 27.1084 44.6025 27.8467C44.251 28.5791 43.7441 29.1504 43.082 29.5605C42.4258 29.9707 41.6699 30.1758 40.8145 30.1758C39.5254 30.1758 38.4795 29.7275 37.6768 28.8311C36.8799 27.9346 36.4814 26.748 36.4814 25.2715V25.1572ZM38.1162 25.3506C38.1162 26.4053 38.3594 27.252 38.8457 27.8906C39.3379 28.5293 39.9941 28.8486 40.8145 28.8486C41.6406 28.8486 42.2969 28.5264 42.7832 27.8818C43.2695 27.2314 43.5127 26.3232 43.5127 25.1572C43.5127 24.1143 43.2637 23.2705 42.7656 22.626C42.2734 21.9756 41.6172 21.6504 40.7969 21.6504C39.9941 21.6504 39.3467 21.9697 38.8545 22.6084C38.3623 23.2471 38.1162 24.1611 38.1162 25.3506ZM46.7471 25.1572C46.7471 24.2256 46.9287 23.3877 47.292 22.6436C47.6611 21.8994 48.1709 21.3252 48.8213 20.9209C49.4775 20.5166 50.2246 20.3145 51.0625 20.3145C52.3574 20.3145 53.4033 20.7627 54.2002 21.6592C55.0029 22.5557 55.4043 23.748 55.4043 25.2363V25.3506C55.4043 26.2764 55.2256 27.1084 54.8682 27.8467C54.5166 28.5791 54.0098 29.1504 53.3477 29.5605C52.6914 29.9707 51.9355 30.1758 51.0801 30.1758C49.791 30.1758 48.7451 29.7275 47.9424 28.8311C47.1455 27.9346 46.7471 26.748 46.7471 25.2715V25.1572ZM48.3818 25.3506C48.3818 26.4053 48.625 27.252 49.1113 27.8906C49.6035 28.5293 50.2598 28.8486 51.0801 28.8486C51.9062 28.8486 52.5625 28.5264 53.0488 27.8818C53.5352 27.2314 53.7783 26.3232 53.7783 25.1572C53.7783 24.1143 53.5293 23.2705 53.0312 22.626C52.5391 21.9756 51.8828 21.6504 51.0625 21.6504C50.2598 21.6504 49.6123 21.9697 49.1201 22.6084C48.6279 23.2471 48.3818 24.1611 48.3818 25.3506ZM60.0977 25.5967L59.0781 26.6602V30H57.4521V16.5H59.0781V24.665L59.9482 23.6191L62.9102 20.4902H64.8877L61.1875 24.4629L65.3184 30H63.4111L60.0977 25.5967ZM72.5693 20.4902L72.6221 21.6855C73.3486 20.7715 74.2979 20.3145 75.4697 20.3145C77.4795 20.3145 78.4932 21.4482 78.5107 23.7158V30H76.8848V23.707C76.8789 23.0215 76.7207 22.5146 76.4102 22.1865C76.1055 21.8584 75.6279 21.6943 74.9775 21.6943C74.4502 21.6943 73.9873 21.835 73.5889 22.1162C73.1904 22.3975 72.8799 22.7666 72.6572 23.2236V30H71.0312V20.4902H72.5693ZM80.5322 25.1572C80.5322 24.2256 80.7139 23.3877 81.0771 22.6436C81.4463 21.8994 81.9561 21.3252 82.6064 20.9209C83.2627 20.5166 84.0098 20.3145 84.8477 20.3145C86.1426 20.3145 87.1885 20.7627 87.9854 21.6592C88.7881 22.5557 89.1895 23.748 89.1895 25.2363V25.3506C89.1895 26.2764 89.0107 27.1084 88.6533 27.8467C88.3018 28.5791 87.7949 29.1504 87.1328 29.5605C86.4766 29.9707 85.7207 30.1758 84.8652 30.1758C83.5762 30.1758 82.5303 29.7275 81.7275 28.8311C80.9307 27.9346 80.5322 26.748 80.5322 25.2715V25.1572ZM82.167 25.3506C82.167 26.4053 82.4102 27.252 82.8965 27.8906C83.3887 28.5293 84.0449 28.8486 84.8652 28.8486C85.6914 28.8486 86.3477 28.5264 86.834 27.8818C87.3203 27.2314 87.5635 26.3232 87.5635 25.1572C87.5635 24.1143 87.3145 23.2705 86.8164 22.626C86.3242 21.9756 85.668 21.6504 84.8477 21.6504C84.0449 21.6504 83.3975 21.9697 82.9053 22.6084C82.4131 23.2471 82.167 24.1611 82.167 25.3506ZM99.6484 27.7588L101.477 20.4902H103.103L100.334 30H99.0156L96.7041 22.793L94.4541 30H93.1357L90.376 20.4902H91.9932L93.8652 27.6094L96.0801 20.4902H97.3896L99.6484 27.7588Z" fill="#3077C6"/>
    </symbol>

    <symbol id="arrow_bottom" viewBox="0 0 48 49" width="48" height="49" fill="none" xmlns="http://www.w3.org/2000/svg">
        <circle cx="24" cy="20.0146" r="20" fill="#F3F3F4"/>
        <path d="M15.1765 18L23.3882 24.1588C24.0993 24.6922 25.0771 24.6922 25.7882 24.1588L34 18" stroke="#383838" stroke-width="2"/>
    </symbol>

    <symbol id="user" viewBox="0 0 86 86">
        <circle cx="43" cy="43" r="43" fill="white"/>
        <path d="M46.6518 55.7484C46.6518 53.6923 47.1633 51.7181 48.1248 49.9587C46.7643 49.1915 45.7619 48.6903 45.3425 48.4857C45.2095 48.4243 45.1379 48.2913 45.1379 48.1481V40.0671C46.1506 39.392 46.8257 38.2361 46.8257 36.9268V28.5491C46.8257 24.3858 43.4501 21 39.2766 21H38.3764H37.4763C33.313 21 29.9272 24.3756 29.9272 28.5491V36.9268C29.9272 38.2361 30.6023 39.392 31.615 40.0671V48.1481C31.615 48.2913 31.5331 48.4243 31.4104 48.4857C30.2545 49.0483 24.6592 51.8715 19.473 56.1371C18.5319 56.9043 18 58.0602 18 59.2774V65.016H38.3662H50.9787C50.7025 64.7909 50.4468 64.5454 50.1911 64.2897C47.91 62.0086 46.6518 58.9705 46.6518 55.7484Z" fill="#3077C6"/>
        <path d="M58.7324 46.4807C53.6179 46.4807 49.4648 50.6337 49.4648 55.7482C49.4648 60.8628 53.6179 65.0158 58.7324 65.0158C63.847 65.0158 68 60.8628 68 55.7482C68 50.6337 63.8572 46.4807 58.7324 46.4807ZM64.1539 57.0985H60.0827V61.1697H57.3822V57.0985H53.311V54.398H57.3822V50.3268H60.0827V54.398H64.1539V57.0985Z" fill="#3077C6"/>
    </symbol>

    <symbol id="close" viewBox="0 0 26 26">
        <path d="M26 1.4857L24.5144 0L13 11.5143L1.4857 0L0 1.4857L11.5143 13L0 24.5144L1.4857 26L13 14.4857L24.5144 26L26 24.5144L14.4857 13L26 1.4857Z" fill="#BFBFBF"/>
    </symbol>

    <symbol id="logo_little" viewBox="0 0 58 58" width="58" height="58" xmlns="http://www.w3.org/2000/svg">>
        <rect width="58" height="58" rx="4" fill="#3077C6"/>
        <path d="M2.58581 26.6094C2.53214 26.5215 2.48231 26.4017 2.43631 26.2499C2.39031 26.0981 2.36731 25.9383 2.36731 25.7706C2.36731 25.459 2.43247 25.2353 2.56281 25.0995C2.7008 24.9637 2.87713 24.8958 3.09179 24.8958H8.10569C8.15936 24.9837 8.20919 25.1035 8.25519 25.2553C8.30119 25.4071 8.32419 25.5669 8.32419 25.7346C8.32419 26.0462 8.25519 26.2699 8.11719 26.4057C7.98686 26.5415 7.81437 26.6094 7.5997 26.6094H6.32323V32.1456C6.2389 32.1696 6.10473 32.1936 5.92074 32.2175C5.74441 32.2415 5.56808 32.2535 5.39175 32.2535C5.21542 32.2535 5.05825 32.2375 4.92026 32.2056C4.78993 32.1816 4.67876 32.1337 4.58676 32.0618C4.49477 31.9899 4.42577 31.89 4.37977 31.7622C4.33377 31.6344 4.31077 31.4666 4.31077 31.2589V26.6094H2.58581Z" fill="white"/>
        <path d="M10.6428 32.1816C10.5662 32.2056 10.4435 32.2295 10.2748 32.2535C10.1138 32.2775 9.94518 32.2894 9.76885 32.2894C9.60018 32.2894 9.44685 32.2775 9.30886 32.2535C9.17853 32.2295 9.06736 32.1816 8.97536 32.1097C8.88336 32.0378 8.81053 31.9419 8.75687 31.8221C8.71087 31.6943 8.68787 31.5305 8.68787 31.3308V27.7358C8.68787 27.5521 8.71853 27.3963 8.77987 27.2685C8.84887 27.1327 8.9447 27.0128 9.06736 26.909C9.19002 26.8051 9.33952 26.7133 9.51585 26.6334C9.69985 26.5455 9.89534 26.4696 10.1023 26.4057C10.3093 26.3418 10.524 26.2938 10.7463 26.2619C10.9687 26.2219 11.191 26.202 11.4133 26.202C11.7813 26.202 12.0726 26.2779 12.2873 26.4297C12.502 26.5735 12.6093 26.8131 12.6093 27.1486C12.6093 27.2605 12.594 27.3723 12.5633 27.4842C12.5326 27.588 12.4943 27.6839 12.4483 27.7718C12.2873 27.7718 12.1225 27.7798 11.9538 27.7957C11.7851 27.8117 11.6203 27.8357 11.4593 27.8676C11.2983 27.8996 11.145 27.9355 10.9993 27.9755C10.8613 28.0074 10.7425 28.0474 10.6428 28.0953V32.1816Z" fill="white"/>
        <path d="M13.3698 24.752C13.3698 24.4484 13.4656 24.1928 13.6573 23.9851C13.8566 23.7774 14.1173 23.6735 14.4393 23.6735C14.7613 23.6735 15.0181 23.7774 15.2098 23.9851C15.4091 24.1928 15.5088 24.4484 15.5088 24.752C15.5088 25.0556 15.4091 25.3112 15.2098 25.5189C15.0181 25.7266 14.7613 25.8305 14.4393 25.8305C14.1173 25.8305 13.8566 25.7266 13.6573 25.5189C13.4656 25.3112 13.3698 25.0556 13.3698 24.752ZM15.4168 32.1816C15.3324 32.1976 15.2059 32.2175 15.0373 32.2415C14.8763 32.2735 14.7114 32.2894 14.5428 32.2894C14.3741 32.2894 14.2208 32.2775 14.0828 32.2535C13.9525 32.2295 13.8413 32.1816 13.7493 32.1097C13.6573 32.0378 13.5845 31.9419 13.5308 31.8221C13.4848 31.6943 13.4618 31.5305 13.4618 31.3308V26.4536C13.5461 26.4376 13.6688 26.4177 13.8298 26.3937C13.9985 26.3618 14.1671 26.3458 14.3358 26.3458C14.5044 26.3458 14.6539 26.3578 14.7843 26.3817C14.9223 26.4057 15.0373 26.4536 15.1293 26.5255C15.2213 26.5974 15.2903 26.6973 15.3363 26.8251C15.3899 26.9449 15.4168 27.1047 15.4168 27.3044V32.1816Z" fill="white"/>
        <path d="M19.2258 26.19C19.6858 26.19 20.1113 26.2539 20.5023 26.3817C20.9009 26.5016 21.2421 26.6893 21.5257 26.9449C21.8094 27.2006 22.0317 27.5241 22.1927 27.9156C22.3537 28.299 22.4342 28.7584 22.4342 29.2936C22.4342 29.8049 22.3652 30.2523 22.2272 30.6358C22.0892 31.0192 21.8937 31.3428 21.6407 31.6064C21.3877 31.862 21.0811 32.0538 20.7208 32.1816C20.3681 32.3094 19.9733 32.3733 19.5363 32.3733C19.2066 32.3733 18.9 32.3214 18.6163 32.2175V34.2068C18.5396 34.2307 18.417 34.2547 18.2483 34.2787C18.0796 34.3106 17.9071 34.3266 17.7308 34.3266C17.5622 34.3266 17.4088 34.3146 17.2708 34.2906C17.1405 34.2667 17.0293 34.2187 16.9373 34.1468C16.8453 34.0749 16.7763 33.9751 16.7303 33.8473C16.6843 33.7274 16.6613 33.5676 16.6613 33.3679V27.616C16.6613 27.4003 16.7035 27.2245 16.7878 27.0887C16.8798 26.9529 17.0025 26.8291 17.1558 26.7173C17.3935 26.5575 17.6887 26.4297 18.0413 26.3338C18.394 26.2379 18.7888 26.19 19.2258 26.19ZM19.2488 30.7676C20.0384 30.7676 20.4333 30.2763 20.4333 29.2936C20.4333 28.7824 20.3336 28.4029 20.1343 28.1552C19.9426 27.9076 19.6628 27.7838 19.2948 27.7838C19.1491 27.7838 19.0188 27.8037 18.9038 27.8437C18.7888 27.8756 18.6891 27.9156 18.6048 27.9635V30.5998C18.6968 30.6477 18.7965 30.6877 18.9038 30.7196C19.0111 30.7516 19.1261 30.7676 19.2488 30.7676Z" fill="white"/>
        <path d="M29.7706 32.1456C29.6863 32.1696 29.5521 32.1936 29.3681 32.2175C29.1918 32.2415 29.0155 32.2535 28.8391 32.2535C28.6628 32.2535 28.5056 32.2375 28.3677 32.2056C28.2373 32.1816 28.1262 32.1337 28.0342 32.0618C27.9422 31.9899 27.8732 31.89 27.8272 31.7622C27.7812 31.6344 27.7582 31.4666 27.7582 31.2589V29.3895H25.5502V32.1456C25.4659 32.1696 25.3317 32.1936 25.1477 32.2175C24.9714 32.2415 24.7951 32.2535 24.6187 32.2535C24.4424 32.2535 24.2852 32.2375 24.1472 32.2056C24.0169 32.1816 23.9057 32.1337 23.8137 32.0618C23.7217 31.9899 23.6527 31.89 23.6067 31.7622C23.5608 31.6344 23.5378 31.4666 23.5378 31.2589V24.9318C23.6221 24.9158 23.7562 24.8958 23.9402 24.8718C24.1242 24.8399 24.3006 24.8239 24.4692 24.8239C24.6456 24.8239 24.7989 24.8399 24.9292 24.8718C25.0672 24.8958 25.1822 24.9437 25.2742 25.0156C25.3662 25.0875 25.4352 25.1874 25.4812 25.3152C25.5272 25.443 25.5502 25.6108 25.5502 25.8185V27.7358H27.7582V24.9318C27.8425 24.9158 27.9767 24.8958 28.1607 24.8718C28.3447 24.8399 28.521 24.8239 28.6896 24.8239C28.866 24.8239 29.0193 24.8399 29.1496 24.8718C29.2876 24.8958 29.4026 24.9437 29.4946 25.0156C29.5866 25.0875 29.6556 25.1874 29.7016 25.3152C29.7476 25.443 29.7706 25.6108 29.7706 25.8185V32.1456Z" fill="white"/>
        <path d="M36.899 29.2817C36.899 29.777 36.8262 30.2203 36.6805 30.6118C36.5349 30.9953 36.3279 31.3188 36.0596 31.5824C35.7989 31.8461 35.4846 32.0458 35.1166 32.1816C34.7486 32.3174 34.3384 32.3853 33.8861 32.3853C33.4338 32.3853 33.0236 32.3134 32.6556 32.1696C32.2876 32.0258 31.9695 31.8221 31.7011 31.5585C31.4405 31.2868 31.2373 30.9593 31.0917 30.5758C30.946 30.1924 30.8732 29.761 30.8732 29.2817C30.8732 28.8103 30.946 28.3829 31.0917 27.9995C31.2373 27.616 31.4405 27.2924 31.7011 27.0288C31.9695 26.7572 32.2876 26.5495 32.6556 26.4057C33.0236 26.2619 33.4338 26.19 33.8861 26.19C34.3384 26.19 34.7486 26.2659 35.1166 26.4177C35.4846 26.5615 35.7989 26.7692 36.0596 27.0408C36.3279 27.3044 36.5349 27.628 36.6805 28.0114C36.8262 28.3949 36.899 28.8183 36.899 29.2817ZM32.8741 29.2817C32.8741 29.769 32.9623 30.1444 33.1386 30.4081C33.3226 30.6637 33.5756 30.7915 33.8976 30.7915C34.2196 30.7915 34.4649 30.6597 34.6336 30.3961C34.8099 30.1325 34.8981 29.761 34.8981 29.2817C34.8981 28.8023 34.8099 28.4348 34.6336 28.1792C34.4573 27.9156 34.2081 27.7838 33.8861 27.7838C33.5641 27.7838 33.3149 27.9156 33.1386 28.1792C32.9623 28.4348 32.8741 28.8023 32.8741 29.2817Z" fill="white"/>
        <path d="M37.8528 26.4536C37.9295 26.4297 38.0483 26.4057 38.2093 26.3817C38.378 26.3578 38.5505 26.3458 38.7268 26.3458C38.8954 26.3458 39.0449 26.3578 39.1753 26.3817C39.3133 26.4057 39.4283 26.4536 39.5203 26.5255C39.6123 26.5974 39.6813 26.6973 39.7273 26.8251C39.7809 26.9449 39.8078 27.1047 39.8078 27.3044V29.8808C39.8078 30.2084 39.8844 30.444 40.0378 30.5878C40.1911 30.7236 40.4134 30.7915 40.7047 30.7915C40.8811 30.7915 41.0229 30.7756 41.1302 30.7436C41.2452 30.7117 41.3334 30.6797 41.3947 30.6477V26.4536C41.4714 26.4297 41.5902 26.4057 41.7512 26.3817C41.9199 26.3578 42.0924 26.3458 42.2687 26.3458C42.4374 26.3458 42.5869 26.3578 42.7172 26.3817C42.8552 26.4057 42.9702 26.4536 43.0622 26.5255C43.1542 26.5974 43.2232 26.6973 43.2692 26.8251C43.3229 26.9449 43.3497 27.1047 43.3497 27.3044V30.9473C43.3497 31.3468 43.1887 31.6463 42.8667 31.8461C42.5984 32.0218 42.2764 32.1536 41.9007 32.2415C41.5327 32.3374 41.1302 32.3853 40.6932 32.3853C40.2793 32.3853 39.8959 32.3374 39.5433 32.2415C39.1983 32.1456 38.8993 31.9978 38.6463 31.7981C38.3933 31.5984 38.1978 31.3428 38.0598 31.0312C37.9218 30.7117 37.8528 30.3282 37.8528 29.8808V26.4536Z" fill="white"/>
        <path d="M49.2609 30.456C49.2609 31.0632 49.0424 31.5385 48.6054 31.882C48.1684 32.2255 47.5245 32.3973 46.6735 32.3973C46.3515 32.3973 46.0525 32.3733 45.7765 32.3254C45.5005 32.2775 45.2628 32.2056 45.0635 32.1097C44.8719 32.0058 44.7185 31.878 44.6035 31.7262C44.4962 31.5744 44.4425 31.3947 44.4425 31.187C44.4425 30.9953 44.4809 30.8355 44.5575 30.7077C44.6342 30.5718 44.7262 30.46 44.8335 30.3721C45.0558 30.5 45.3088 30.6158 45.5925 30.7196C45.8838 30.8155 46.2173 30.8634 46.593 30.8634C46.8306 30.8634 47.0108 30.8275 47.1335 30.7556C47.2638 30.6837 47.329 30.5878 47.329 30.468C47.329 30.3562 47.283 30.2683 47.191 30.2044C47.099 30.1405 46.9456 30.0885 46.731 30.0486L46.386 29.9767C45.719 29.8409 45.2207 29.6292 44.891 29.3416C44.569 29.046 44.408 28.6266 44.408 28.0833C44.408 27.7878 44.4694 27.5201 44.592 27.2805C44.7147 27.0408 44.8872 26.8411 45.1095 26.6813C45.3318 26.5215 45.5963 26.3977 45.903 26.3098C46.2173 26.2219 46.5623 26.178 46.938 26.178C47.2216 26.178 47.4861 26.202 47.7315 26.2499C47.9845 26.2899 48.203 26.3538 48.3869 26.4416C48.5709 26.5295 48.7166 26.6454 48.8239 26.7892C48.9313 26.925 48.9849 27.0887 48.9849 27.2805C48.9849 27.4642 48.9504 27.624 48.8814 27.7598C48.8201 27.8876 48.7396 27.9955 48.6399 28.0833C48.5786 28.0434 48.4866 28.0035 48.3639 27.9635C48.2413 27.9156 48.1071 27.8756 47.9615 27.8437C47.8158 27.8037 47.6663 27.7718 47.513 27.7478C47.3673 27.7238 47.2331 27.7119 47.1105 27.7119C46.8575 27.7119 46.662 27.7438 46.524 27.8077C46.386 27.8636 46.317 27.9555 46.317 28.0833C46.317 28.1712 46.3553 28.2431 46.432 28.299C46.5087 28.355 46.6543 28.4069 46.869 28.4548L47.2255 28.5387C47.9615 28.7145 48.4828 28.9581 48.7894 29.2697C49.1038 29.5732 49.2609 29.9687 49.2609 30.456Z" fill="white"/>
        <path d="M53.2177 32.3853C52.7653 32.3853 52.3437 32.3214 51.9527 32.1936C51.5694 32.0578 51.232 31.858 50.9407 31.5944C50.657 31.3308 50.4309 30.9992 50.2622 30.5998C50.1012 30.2004 50.0207 29.733 50.0207 29.1978C50.0207 28.6705 50.1012 28.2191 50.2622 27.8437C50.4309 27.4602 50.6494 27.1486 50.9177 26.909C51.186 26.6613 51.4927 26.4816 51.8377 26.3697C52.1827 26.2499 52.5353 26.19 52.8957 26.19C53.302 26.19 53.67 26.2539 53.9996 26.3817C54.337 26.5095 54.6245 26.6853 54.8621 26.909C55.1075 27.1327 55.2953 27.4003 55.4256 27.7119C55.5636 28.0234 55.6326 28.3629 55.6326 28.7304C55.6326 29.0021 55.5598 29.2098 55.4141 29.3536C55.2684 29.4974 55.0653 29.5892 54.8046 29.6292L51.9642 30.0725C52.0485 30.3362 52.221 30.5359 52.4817 30.6717C52.7423 30.7995 53.0413 30.8634 53.3787 30.8634C53.693 30.8634 53.9881 30.8235 54.2641 30.7436C54.5478 30.6557 54.7778 30.5559 54.9541 30.444C55.0768 30.5239 55.1803 30.6358 55.2646 30.7796C55.3489 30.9234 55.3911 31.0751 55.3911 31.2349C55.3911 31.5944 55.2301 31.862 54.9081 32.0378C54.6628 32.1736 54.3868 32.2655 54.0801 32.3134C53.7735 32.3613 53.486 32.3853 53.2177 32.3853ZM52.8957 27.6759C52.7117 27.6759 52.5507 27.7079 52.4127 27.7718C52.2823 27.8357 52.175 27.9196 52.0907 28.0234C52.0064 28.1193 51.9412 28.2311 51.8952 28.359C51.8568 28.4788 51.8339 28.6026 51.8262 28.7304L53.7926 28.3949C53.7696 28.2351 53.6853 28.0754 53.5396 27.9156C53.394 27.7558 53.1793 27.6759 52.8957 27.6759Z" fill="white"/>

    </symbol>


</svg>


