<svg display="none" xmlns="http://www.w3.org/2000/svg">
<symbol id="support" viewBox="0 0 296 176">
    <path d="M84.0195 162.395C82.0898 161.84 80.6836 161.16 79.8008 160.355C78.9258 159.543 78.4883 158.543 78.4883 157.355C78.4883 156.012 79.0234 154.902 80.0938 154.027C81.1719 153.145 82.5703 152.703 84.2891 152.703C85.4609 152.703 86.5039 152.93 87.418 153.383C88.3398 153.836 89.0508 154.461 89.5508 155.258C90.0586 156.055 90.3125 156.926 90.3125 157.871H88.0508C88.0508 156.84 87.7227 156.031 87.0664 155.445C86.4102 154.852 85.4844 154.555 84.2891 154.555C83.1797 154.555 82.3125 154.801 81.6875 155.293C81.0703 155.777 80.7617 156.453 80.7617 157.32C80.7617 158.016 81.0547 158.605 81.6406 159.09C82.2344 159.566 83.2383 160.004 84.6523 160.402C86.0742 160.801 87.1836 161.242 87.9805 161.727C88.7852 162.203 89.3789 162.762 89.7617 163.402C90.1523 164.043 90.3477 164.797 90.3477 165.664C90.3477 167.047 89.8086 168.156 88.7305 168.992C87.6523 169.82 86.2109 170.234 84.4062 170.234C83.2344 170.234 82.1406 170.012 81.125 169.566C80.1094 169.113 79.3242 168.496 78.7695 167.715C78.2227 166.934 77.9492 166.047 77.9492 165.055H80.2109C80.2109 166.086 80.5898 166.902 81.3477 167.504C82.1133 168.098 83.1328 168.395 84.4062 168.395C85.5938 168.395 86.5039 168.152 87.1367 167.668C87.7695 167.184 88.0859 166.523 88.0859 165.688C88.0859 164.852 87.793 164.207 87.207 163.754C86.6211 163.293 85.5586 162.84 84.0195 162.395ZM100.73 168.746C99.8867 169.738 98.6484 170.234 97.0156 170.234C95.6641 170.234 94.6328 169.844 93.9219 169.062C93.2188 168.273 92.8633 167.109 92.8555 165.57V157.32H95.0234V165.512C95.0234 167.434 95.8047 168.395 97.3672 168.395C99.0234 168.395 100.125 167.777 100.672 166.543V157.32H102.84V170H100.777L100.73 168.746ZM116.855 163.801C116.855 165.73 116.414 167.285 115.531 168.465C114.648 169.645 113.453 170.234 111.945 170.234C110.406 170.234 109.195 169.746 108.312 168.77V174.875H106.145V157.32H108.125L108.23 158.727C109.113 157.633 110.34 157.086 111.91 157.086C113.434 157.086 114.637 157.66 115.52 158.809C116.41 159.957 116.855 161.555 116.855 163.602V163.801ZM114.688 163.555C114.688 162.125 114.383 160.996 113.773 160.168C113.164 159.34 112.328 158.926 111.266 158.926C109.953 158.926 108.969 159.508 108.312 160.672V166.73C108.961 167.887 109.953 168.465 111.289 168.465C112.328 168.465 113.152 168.055 113.762 167.234C114.379 166.406 114.688 165.18 114.688 163.555ZM130.332 163.801C130.332 165.73 129.891 167.285 129.008 168.465C128.125 169.645 126.93 170.234 125.422 170.234C123.883 170.234 122.672 169.746 121.789 168.77V174.875H119.621V157.32H121.602L121.707 158.727C122.59 157.633 123.816 157.086 125.387 157.086C126.91 157.086 128.113 157.66 128.996 158.809C129.887 159.957 130.332 161.555 130.332 163.602V163.801ZM128.164 163.555C128.164 162.125 127.859 160.996 127.25 160.168C126.641 159.34 125.805 158.926 124.742 158.926C123.43 158.926 122.445 159.508 121.789 160.672V166.73C122.438 167.887 123.43 168.465 124.766 168.465C125.805 168.465 126.629 168.055 127.238 167.234C127.855 166.406 128.164 165.18 128.164 163.555ZM132.523 163.543C132.523 162.301 132.766 161.184 133.25 160.191C133.742 159.199 134.422 158.434 135.289 157.895C136.164 157.355 137.16 157.086 138.277 157.086C140.004 157.086 141.398 157.684 142.461 158.879C143.531 160.074 144.066 161.664 144.066 163.648V163.801C144.066 165.035 143.828 166.145 143.352 167.129C142.883 168.105 142.207 168.867 141.324 169.414C140.449 169.961 139.441 170.234 138.301 170.234C136.582 170.234 135.188 169.637 134.117 168.441C133.055 167.246 132.523 165.664 132.523 163.695V163.543ZM134.703 163.801C134.703 165.207 135.027 166.336 135.676 167.188C136.332 168.039 137.207 168.465 138.301 168.465C139.402 168.465 140.277 168.035 140.926 167.176C141.574 166.309 141.898 165.098 141.898 163.543C141.898 162.152 141.566 161.027 140.902 160.168C140.246 159.301 139.371 158.867 138.277 158.867C137.207 158.867 136.344 159.293 135.688 160.145C135.031 160.996 134.703 162.215 134.703 163.801ZM152.914 159.266C152.586 159.211 152.23 159.184 151.848 159.184C150.426 159.184 149.461 159.789 148.953 161V170H146.785V157.32H148.895L148.93 158.785C149.641 157.652 150.648 157.086 151.953 157.086C152.375 157.086 152.695 157.141 152.914 157.25V159.266ZM158.445 154.25V157.32H160.812V158.996H158.445V166.859C158.445 167.367 158.551 167.75 158.762 168.008C158.973 168.258 159.332 168.383 159.84 168.383C160.09 168.383 160.434 168.336 160.871 168.242V170C160.301 170.156 159.746 170.234 159.207 170.234C158.238 170.234 157.508 169.941 157.016 169.355C156.523 168.77 156.277 167.938 156.277 166.859V158.996H153.969V157.32H156.277V154.25H158.445ZM180.266 170H169.086V168.441L174.992 161.879C175.867 160.887 176.469 160.082 176.797 159.465C177.133 158.84 177.301 158.195 177.301 157.531C177.301 156.641 177.031 155.91 176.492 155.34C175.953 154.77 175.234 154.484 174.336 154.484C173.258 154.484 172.418 154.793 171.816 155.41C171.223 156.02 170.926 156.871 170.926 157.965H168.758C168.758 156.395 169.262 155.125 170.27 154.156C171.285 153.188 172.641 152.703 174.336 152.703C175.922 152.703 177.176 153.121 178.098 153.957C179.02 154.785 179.48 155.891 179.48 157.273C179.48 158.953 178.41 160.953 176.27 163.273L171.699 168.23H180.266V170ZM191.715 164.27H194.082V166.039H191.715V170H189.535V166.039H181.766V164.762L189.406 152.938H191.715V164.27ZM184.227 164.27H189.535V155.902L189.277 156.371L184.227 164.27ZM196.695 171.465H194.832L201.957 152.938H203.809L196.695 171.465ZM216.945 154.156L209.879 170H207.605L214.648 154.719H205.414V152.938H216.945V154.156Z" fill="#383838"/>
    <path d="M177.167 58.3333V75H168.833V58.3333H177.167ZM127.167 58.3333V75H123C120.708 75 118.833 73.125 118.833 70.8333V58.3333H127.167ZM148 4.16663C127.292 4.16663 110.5 20.9583 110.5 41.6666V70.8333C110.5 77.75 116.083 83.3333 123 83.3333H135.5V50H118.833V41.6666C118.833 25.5416 131.875 12.5 148 12.5C164.125 12.5 177.167 25.5416 177.167 41.6666V50H160.5V83.3333H177.167V87.5H148V95.8333H173C179.917 95.8333 185.5 90.25 185.5 83.3333V41.6666C185.5 20.9583 168.708 4.16663 148 4.16663Z" fill="#3077C6"/>
</symbol>

    <symbol id="communicate" viewBox="0 0 296 178">
        <path d="M45.7773 164.586C45.5664 166.391 44.8984 167.785 43.7734 168.77C42.6562 169.746 41.168 170.234 39.3086 170.234C37.293 170.234 35.6758 169.512 34.457 168.066C33.2461 166.621 32.6406 164.688 32.6406 162.266V160.625C32.6406 159.039 32.9219 157.645 33.4844 156.441C34.0547 155.238 34.8594 154.316 35.8984 153.676C36.9375 153.027 38.1406 152.703 39.5078 152.703C41.3203 152.703 42.7734 153.211 43.8672 154.227C44.9609 155.234 45.5977 156.633 45.7773 158.422H43.5156C43.3203 157.062 42.8945 156.078 42.2383 155.469C41.5898 154.859 40.6797 154.555 39.5078 154.555C38.0703 154.555 36.9414 155.086 36.1211 156.148C35.3086 157.211 34.9023 158.723 34.9023 160.684V162.336C34.9023 164.188 35.2891 165.66 36.0625 166.754C36.8359 167.848 37.918 168.395 39.3086 168.395C40.5586 168.395 41.5156 168.113 42.1797 167.551C42.8516 166.98 43.2969 165.992 43.5156 164.586H45.7773ZM47.9453 163.543C47.9453 162.301 48.1875 161.184 48.6719 160.191C49.1641 159.199 49.8438 158.434 50.7109 157.895C51.5859 157.355 52.582 157.086 53.6992 157.086C55.4258 157.086 56.8203 157.684 57.8828 158.879C58.9531 160.074 59.4883 161.664 59.4883 163.648V163.801C59.4883 165.035 59.25 166.145 58.7734 167.129C58.3047 168.105 57.6289 168.867 56.7461 169.414C55.8711 169.961 54.8633 170.234 53.7227 170.234C52.0039 170.234 50.6094 169.637 49.5391 168.441C48.4766 167.246 47.9453 165.664 47.9453 163.695V163.543ZM50.125 163.801C50.125 165.207 50.4492 166.336 51.0977 167.188C51.7539 168.039 52.6289 168.465 53.7227 168.465C54.8242 168.465 55.6992 168.035 56.3477 167.176C56.9961 166.309 57.3203 165.098 57.3203 163.543C57.3203 162.152 56.9883 161.027 56.3242 160.168C55.668 159.301 54.793 158.867 53.6992 158.867C52.6289 158.867 51.7656 159.293 51.1094 160.145C50.4531 160.996 50.125 162.215 50.125 163.801ZM64.2461 157.32L64.3047 158.727C65.2344 157.633 66.4883 157.086 68.0664 157.086C69.8398 157.086 71.0469 157.766 71.6875 159.125C72.1094 158.516 72.6562 158.023 73.3281 157.648C74.0078 157.273 74.8086 157.086 75.7305 157.086C78.5117 157.086 79.9258 158.559 79.9727 161.504V170H77.8047V161.633C77.8047 160.727 77.5977 160.051 77.1836 159.605C76.7695 159.152 76.0742 158.926 75.0977 158.926C74.293 158.926 73.625 159.168 73.0938 159.652C72.5625 160.129 72.2539 160.773 72.168 161.586V170H69.9883V161.691C69.9883 159.848 69.0859 158.926 67.2812 158.926C65.8594 158.926 64.8867 159.531 64.3633 160.742V170H62.1953V157.32H64.2461ZM85.293 157.32L85.3516 158.727C86.2812 157.633 87.5352 157.086 89.1133 157.086C90.8867 157.086 92.0938 157.766 92.7344 159.125C93.1562 158.516 93.7031 158.023 94.375 157.648C95.0547 157.273 95.8555 157.086 96.7773 157.086C99.5586 157.086 100.973 158.559 101.02 161.504V170H98.8516V161.633C98.8516 160.727 98.6445 160.051 98.2305 159.605C97.8164 159.152 97.1211 158.926 96.1445 158.926C95.3398 158.926 94.6719 159.168 94.1406 159.652C93.6094 160.129 93.3008 160.773 93.2148 161.586V170H91.0352V161.691C91.0352 159.848 90.1328 158.926 88.3281 158.926C86.9062 158.926 85.9336 159.531 85.4102 160.742V170H83.2422V157.32H85.293ZM112.129 168.746C111.285 169.738 110.047 170.234 108.414 170.234C107.062 170.234 106.031 169.844 105.32 169.062C104.617 168.273 104.262 167.109 104.254 165.57V157.32H106.422V165.512C106.422 167.434 107.203 168.395 108.766 168.395C110.422 168.395 111.523 167.777 112.07 166.543V157.32H114.238V170H112.176L112.129 168.746ZM119.594 157.32L119.664 158.914C120.633 157.695 121.898 157.086 123.461 157.086C126.141 157.086 127.492 158.598 127.516 161.621V170H125.348V161.609C125.34 160.695 125.129 160.02 124.715 159.582C124.309 159.145 123.672 158.926 122.805 158.926C122.102 158.926 121.484 159.113 120.953 159.488C120.422 159.863 120.008 160.355 119.711 160.965V170H117.543V157.32H119.594ZM133.141 170H130.973V157.32H133.141V170ZM130.797 153.957C130.797 153.605 130.902 153.309 131.113 153.066C131.332 152.824 131.652 152.703 132.074 152.703C132.496 152.703 132.816 152.824 133.035 153.066C133.254 153.309 133.363 153.605 133.363 153.957C133.363 154.309 133.254 154.602 133.035 154.836C132.816 155.07 132.496 155.188 132.074 155.188C131.652 155.188 131.332 155.07 131.113 154.836C130.902 154.602 130.797 154.309 130.797 153.957ZM141.707 168.465C142.48 168.465 143.156 168.23 143.734 167.762C144.312 167.293 144.633 166.707 144.695 166.004H146.746C146.707 166.73 146.457 167.422 145.996 168.078C145.535 168.734 144.918 169.258 144.145 169.648C143.379 170.039 142.566 170.234 141.707 170.234C139.98 170.234 138.605 169.66 137.582 168.512C136.566 167.355 136.059 165.777 136.059 163.777V163.414C136.059 162.18 136.285 161.082 136.738 160.121C137.191 159.16 137.84 158.414 138.684 157.883C139.535 157.352 140.539 157.086 141.695 157.086C143.117 157.086 144.297 157.512 145.234 158.363C146.18 159.215 146.684 160.32 146.746 161.68H144.695C144.633 160.859 144.32 160.188 143.758 159.664C143.203 159.133 142.516 158.867 141.695 158.867C140.594 158.867 139.738 159.266 139.129 160.062C138.527 160.852 138.227 161.996 138.227 163.496V163.906C138.227 165.367 138.527 166.492 139.129 167.281C139.73 168.07 140.59 168.465 141.707 168.465ZM157.012 170C156.887 169.75 156.785 169.305 156.707 168.664C155.699 169.711 154.496 170.234 153.098 170.234C151.848 170.234 150.82 169.883 150.016 169.18C149.219 168.469 148.82 167.57 148.82 166.484C148.82 165.164 149.32 164.141 150.32 163.414C151.328 162.68 152.742 162.312 154.562 162.312H156.672V161.316C156.672 160.559 156.445 159.957 155.992 159.512C155.539 159.059 154.871 158.832 153.988 158.832C153.215 158.832 152.566 159.027 152.043 159.418C151.52 159.809 151.258 160.281 151.258 160.836H149.078C149.078 160.203 149.301 159.594 149.746 159.008C150.199 158.414 150.809 157.945 151.574 157.602C152.348 157.258 153.195 157.086 154.117 157.086C155.578 157.086 156.723 157.453 157.551 158.188C158.379 158.914 158.809 159.918 158.84 161.199V167.035C158.84 168.199 158.988 169.125 159.285 169.812V170H157.012ZM153.414 168.348C154.094 168.348 154.738 168.172 155.348 167.82C155.957 167.469 156.398 167.012 156.672 166.449V163.848H154.973C152.316 163.848 150.988 164.625 150.988 166.18C150.988 166.859 151.215 167.391 151.668 167.773C152.121 168.156 152.703 168.348 153.414 168.348ZM165.18 154.25V157.32H167.547V158.996H165.18V166.859C165.18 167.367 165.285 167.75 165.496 168.008C165.707 168.258 166.066 168.383 166.574 168.383C166.824 168.383 167.168 168.336 167.605 168.242V170C167.035 170.156 166.48 170.234 165.941 170.234C164.973 170.234 164.242 169.941 163.75 169.355C163.258 168.77 163.012 167.938 163.012 166.859V158.996H160.703V157.32H163.012V154.25H165.18ZM175.352 170.234C173.633 170.234 172.234 169.672 171.156 168.547C170.078 167.414 169.539 165.902 169.539 164.012V163.613C169.539 162.355 169.777 161.234 170.254 160.25C170.738 159.258 171.41 158.484 172.27 157.93C173.137 157.367 174.074 157.086 175.082 157.086C176.73 157.086 178.012 157.629 178.926 158.715C179.84 159.801 180.297 161.355 180.297 163.379V164.281H171.707C171.738 165.531 172.102 166.543 172.797 167.316C173.5 168.082 174.391 168.465 175.469 168.465C176.234 168.465 176.883 168.309 177.414 167.996C177.945 167.684 178.41 167.27 178.809 166.754L180.133 167.785C179.07 169.418 177.477 170.234 175.352 170.234ZM175.082 158.867C174.207 158.867 173.473 159.188 172.879 159.828C172.285 160.461 171.918 161.352 171.777 162.5H178.129V162.336C178.066 161.234 177.77 160.383 177.238 159.781C176.707 159.172 175.988 158.867 175.082 158.867ZM188.242 163.555C188.242 161.609 188.703 160.047 189.625 158.867C190.547 157.68 191.754 157.086 193.246 157.086C194.73 157.086 195.906 157.594 196.773 158.609V152H198.941V170H196.949L196.844 168.641C195.977 169.703 194.77 170.234 193.223 170.234C191.754 170.234 190.555 169.633 189.625 168.43C188.703 167.227 188.242 165.656 188.242 163.719V163.555ZM190.41 163.801C190.41 165.238 190.707 166.363 191.301 167.176C191.895 167.988 192.715 168.395 193.762 168.395C195.137 168.395 196.141 167.777 196.773 166.543V160.719C196.125 159.523 195.129 158.926 193.785 158.926C192.723 158.926 191.895 159.336 191.301 160.156C190.707 160.977 190.41 162.191 190.41 163.801ZM204.672 170H202.504V157.32H204.672V170ZM202.328 153.957C202.328 153.605 202.434 153.309 202.645 153.066C202.863 152.824 203.184 152.703 203.605 152.703C204.027 152.703 204.348 152.824 204.566 153.066C204.785 153.309 204.895 153.605 204.895 153.957C204.895 154.309 204.785 154.602 204.566 154.836C204.348 155.07 204.027 155.188 203.605 155.188C203.184 155.188 202.863 155.07 202.645 154.836C202.434 154.602 202.328 154.309 202.328 153.957ZM214.281 159.266C213.953 159.211 213.598 159.184 213.215 159.184C211.793 159.184 210.828 159.789 210.32 161V170H208.152V157.32H210.262L210.297 158.785C211.008 157.652 212.016 157.086 213.32 157.086C213.742 157.086 214.062 157.141 214.281 157.25V159.266ZM221.312 170.234C219.594 170.234 218.195 169.672 217.117 168.547C216.039 167.414 215.5 165.902 215.5 164.012V163.613C215.5 162.355 215.738 161.234 216.215 160.25C216.699 159.258 217.371 158.484 218.23 157.93C219.098 157.367 220.035 157.086 221.043 157.086C222.691 157.086 223.973 157.629 224.887 158.715C225.801 159.801 226.258 161.355 226.258 163.379V164.281H217.668C217.699 165.531 218.062 166.543 218.758 167.316C219.461 168.082 220.352 168.465 221.43 168.465C222.195 168.465 222.844 168.309 223.375 167.996C223.906 167.684 224.371 167.27 224.77 166.754L226.094 167.785C225.031 169.418 223.438 170.234 221.312 170.234ZM221.043 158.867C220.168 158.867 219.434 159.188 218.84 159.828C218.246 160.461 217.879 161.352 217.738 162.5H224.09V162.336C224.027 161.234 223.73 160.383 223.199 159.781C222.668 159.172 221.949 158.867 221.043 158.867ZM233.863 168.465C234.637 168.465 235.312 168.23 235.891 167.762C236.469 167.293 236.789 166.707 236.852 166.004H238.902C238.863 166.73 238.613 167.422 238.152 168.078C237.691 168.734 237.074 169.258 236.301 169.648C235.535 170.039 234.723 170.234 233.863 170.234C232.137 170.234 230.762 169.66 229.738 168.512C228.723 167.355 228.215 165.777 228.215 163.777V163.414C228.215 162.18 228.441 161.082 228.895 160.121C229.348 159.16 229.996 158.414 230.84 157.883C231.691 157.352 232.695 157.086 233.852 157.086C235.273 157.086 236.453 157.512 237.391 158.363C238.336 159.215 238.84 160.32 238.902 161.68H236.852C236.789 160.859 236.477 160.188 235.914 159.664C235.359 159.133 234.672 158.867 233.852 158.867C232.75 158.867 231.895 159.266 231.285 160.062C230.684 160.852 230.383 161.996 230.383 163.496V163.906C230.383 165.367 230.684 166.492 231.285 167.281C231.887 168.07 232.746 168.465 233.863 168.465ZM244.281 154.25V157.32H246.648V158.996H244.281V166.859C244.281 167.367 244.387 167.75 244.598 168.008C244.809 168.258 245.168 168.383 245.676 168.383C245.926 168.383 246.27 168.336 246.707 168.242V170C246.137 170.156 245.582 170.234 245.043 170.234C244.074 170.234 243.344 169.941 242.852 169.355C242.359 168.77 242.113 167.938 242.113 166.859V158.996H239.805V157.32H242.113V154.25H244.281ZM251.547 170H249.379V152H251.547V170ZM259.176 166.824L262.129 157.32H264.449L259.352 171.957C258.562 174.066 257.309 175.121 255.59 175.121L255.18 175.086L254.371 174.934V173.176L254.957 173.223C255.691 173.223 256.262 173.074 256.668 172.777C257.082 172.48 257.422 171.938 257.688 171.148L258.168 169.859L253.645 157.32H256.012L259.176 166.824Z" fill="#383838"/>
        <path d="M159.5 16.6667V45.8334H118.542L113.667 50.7084V16.6667H159.5ZM163.667 8.33337H109.5C107.208 8.33337 105.333 10.2084 105.333 12.5V70.8334L122 54.1667H163.667C165.958 54.1667 167.833 52.2917 167.833 50V12.5C167.833 10.2084 165.958 8.33337 163.667 8.33337ZM184.5 25H176.167V62.5H122V70.8334C122 73.125 123.875 75 126.167 75H172L188.667 91.6667V29.1667C188.667 26.875 186.792 25 184.5 25Z" fill="#3077C6"/>
    </symbol>

    <symbol id="booking" viewBox="0 0 296 184">
        <path d="M87.4727 170V152.938H93.0508C94.9023 152.938 96.293 153.32 97.2227 154.086C98.1602 154.852 98.6289 155.984 98.6289 157.484C98.6289 158.281 98.4023 158.988 97.9492 159.605C97.4961 160.215 96.8789 160.688 96.0977 161.023C97.0195 161.281 97.7461 161.773 98.2773 162.5C98.8164 163.219 99.0859 164.078 99.0859 165.078C99.0859 166.609 98.5898 167.812 97.5977 168.688C96.6055 169.562 95.2031 170 93.3906 170H87.4727ZM89.7227 162.02V168.16H93.4375C94.4844 168.16 95.3086 167.891 95.9102 167.352C96.5195 166.805 96.8242 166.055 96.8242 165.102C96.8242 163.047 95.707 162.02 93.4727 162.02H89.7227ZM89.7227 160.215H93.1211C94.1055 160.215 94.8906 159.969 95.4766 159.477C96.0703 158.984 96.3672 158.316 96.3672 157.473C96.3672 156.535 96.0938 155.855 95.5469 155.434C95 155.004 94.168 154.789 93.0508 154.789H89.7227V160.215ZM101.512 163.543C101.512 162.301 101.754 161.184 102.238 160.191C102.73 159.199 103.41 158.434 104.277 157.895C105.152 157.355 106.148 157.086 107.266 157.086C108.992 157.086 110.387 157.684 111.449 158.879C112.52 160.074 113.055 161.664 113.055 163.648V163.801C113.055 165.035 112.816 166.145 112.34 167.129C111.871 168.105 111.195 168.867 110.312 169.414C109.438 169.961 108.43 170.234 107.289 170.234C105.57 170.234 104.176 169.637 103.105 168.441C102.043 167.246 101.512 165.664 101.512 163.695V163.543ZM103.691 163.801C103.691 165.207 104.016 166.336 104.664 167.188C105.32 168.039 106.195 168.465 107.289 168.465C108.391 168.465 109.266 168.035 109.914 167.176C110.562 166.309 110.887 165.098 110.887 163.543C110.887 162.152 110.555 161.027 109.891 160.168C109.234 159.301 108.359 158.867 107.266 158.867C106.195 158.867 105.332 159.293 104.676 160.145C104.02 160.996 103.691 162.215 103.691 163.801ZM115.199 163.543C115.199 162.301 115.441 161.184 115.926 160.191C116.418 159.199 117.098 158.434 117.965 157.895C118.84 157.355 119.836 157.086 120.953 157.086C122.68 157.086 124.074 157.684 125.137 158.879C126.207 160.074 126.742 161.664 126.742 163.648V163.801C126.742 165.035 126.504 166.145 126.027 167.129C125.559 168.105 124.883 168.867 124 169.414C123.125 169.961 122.117 170.234 120.977 170.234C119.258 170.234 117.863 169.637 116.793 168.441C115.73 167.246 115.199 165.664 115.199 163.695V163.543ZM117.379 163.801C117.379 165.207 117.703 166.336 118.352 167.188C119.008 168.039 119.883 168.465 120.977 168.465C122.078 168.465 122.953 168.035 123.602 167.176C124.25 166.309 124.574 165.098 124.574 163.543C124.574 162.152 124.242 161.027 123.578 160.168C122.922 159.301 122.047 158.867 120.953 158.867C119.883 158.867 119.02 159.293 118.363 160.145C117.707 160.996 117.379 162.215 117.379 163.801ZM133 164.129L131.641 165.547V170H129.473V152H131.641V162.887L132.801 161.492L136.75 157.32H139.387L134.453 162.617L139.961 170H137.418L133 164.129ZM147.004 163.543C147.004 162.301 147.246 161.184 147.73 160.191C148.223 159.199 148.902 158.434 149.77 157.895C150.645 157.355 151.641 157.086 152.758 157.086C154.484 157.086 155.879 157.684 156.941 158.879C158.012 160.074 158.547 161.664 158.547 163.648V163.801C158.547 165.035 158.309 166.145 157.832 167.129C157.363 168.105 156.688 168.867 155.805 169.414C154.93 169.961 153.922 170.234 152.781 170.234C151.062 170.234 149.668 169.637 148.598 168.441C147.535 167.246 147.004 165.664 147.004 163.695V163.543ZM149.184 163.801C149.184 165.207 149.508 166.336 150.156 167.188C150.812 168.039 151.688 168.465 152.781 168.465C153.883 168.465 154.758 168.035 155.406 167.176C156.055 166.309 156.379 165.098 156.379 163.543C156.379 162.152 156.047 161.027 155.383 160.168C154.727 159.301 153.852 158.867 152.758 158.867C151.688 158.867 150.824 159.293 150.168 160.145C149.512 160.996 149.184 162.215 149.184 163.801ZM163.316 157.32L163.387 158.914C164.355 157.695 165.621 157.086 167.184 157.086C169.863 157.086 171.215 158.598 171.238 161.621V170H169.07V161.609C169.062 160.695 168.852 160.02 168.438 159.582C168.031 159.145 167.395 158.926 166.527 158.926C165.824 158.926 165.207 159.113 164.676 159.488C164.145 159.863 163.73 160.355 163.434 160.965V170H161.266V157.32H163.316ZM176.863 170H174.695V152H176.863V170ZM182.699 170H180.531V157.32H182.699V170ZM180.355 153.957C180.355 153.605 180.461 153.309 180.672 153.066C180.891 152.824 181.211 152.703 181.633 152.703C182.055 152.703 182.375 152.824 182.594 153.066C182.812 153.309 182.922 153.605 182.922 153.957C182.922 154.309 182.812 154.602 182.594 154.836C182.375 155.07 182.055 155.188 181.633 155.188C181.211 155.188 180.891 155.07 180.672 154.836C180.461 154.602 180.355 154.309 180.355 153.957ZM188.23 157.32L188.301 158.914C189.27 157.695 190.535 157.086 192.098 157.086C194.777 157.086 196.129 158.598 196.152 161.621V170H193.984V161.609C193.977 160.695 193.766 160.02 193.352 159.582C192.945 159.145 192.309 158.926 191.441 158.926C190.738 158.926 190.121 159.113 189.59 159.488C189.059 159.863 188.645 160.355 188.348 160.965V170H186.18V157.32H188.23ZM204.684 170.234C202.965 170.234 201.566 169.672 200.488 168.547C199.41 167.414 198.871 165.902 198.871 164.012V163.613C198.871 162.355 199.109 161.234 199.586 160.25C200.07 159.258 200.742 158.484 201.602 157.93C202.469 157.367 203.406 157.086 204.414 157.086C206.062 157.086 207.344 157.629 208.258 158.715C209.172 159.801 209.629 161.355 209.629 163.379V164.281H201.039C201.07 165.531 201.434 166.543 202.129 167.316C202.832 168.082 203.723 168.465 204.801 168.465C205.566 168.465 206.215 168.309 206.746 167.996C207.277 167.684 207.742 167.27 208.141 166.754L209.465 167.785C208.402 169.418 206.809 170.234 204.684 170.234ZM204.414 158.867C203.539 158.867 202.805 159.188 202.211 159.828C201.617 160.461 201.25 161.352 201.109 162.5H207.461V162.336C207.398 161.234 207.102 160.383 206.57 159.781C206.039 159.172 205.32 158.867 204.414 158.867Z" fill="#383838"/>
        <path d="M114.667 25H189.667V16.6666H114.667C110.083 16.6666 106.333 20.4166 106.333 25V70.8333H98V83.3333H156.333V70.8333H114.667V25ZM193.833 33.3333H168.833C166.542 33.3333 164.667 35.2083 164.667 37.5V79.1666C164.667 81.4583 166.542 83.3333 168.833 83.3333H193.833C196.125 83.3333 198 81.4583 198 79.1666V37.5C198 35.2083 196.125 33.3333 193.833 33.3333ZM189.667 70.8333H173V41.6666H189.667V70.8333Z" fill="#3077C6"/>
    </symbol>

    <symbol id="reviews" viewBox="0 0 296 183">
        <path d="M57.2109 163.098H53.2031V170H50.9414V152.938H56.5898C58.5117 152.938 59.9883 153.375 61.0195 154.25C62.0586 155.125 62.5781 156.398 62.5781 158.07C62.5781 159.133 62.2891 160.059 61.7109 160.848C61.1406 161.637 60.3438 162.227 59.3203 162.617L63.3281 169.859V170H60.9141L57.2109 163.098ZM53.2031 161.258H56.6602C57.7773 161.258 58.6641 160.969 59.3203 160.391C59.9844 159.812 60.3164 159.039 60.3164 158.07C60.3164 157.016 60 156.207 59.3672 155.645C58.7422 155.082 57.8359 154.797 56.6484 154.789H53.2031V161.258ZM70.6641 170.234C68.9453 170.234 67.5469 169.672 66.4688 168.547C65.3906 167.414 64.8516 165.902 64.8516 164.012V163.613C64.8516 162.355 65.0898 161.234 65.5664 160.25C66.0508 159.258 66.7227 158.484 67.582 157.93C68.4492 157.367 69.3867 157.086 70.3945 157.086C72.043 157.086 73.3242 157.629 74.2383 158.715C75.1523 159.801 75.6094 161.355 75.6094 163.379V164.281H67.0195C67.0508 165.531 67.4141 166.543 68.1094 167.316C68.8125 168.082 69.7031 168.465 70.7812 168.465C71.5469 168.465 72.1953 168.309 72.7266 167.996C73.2578 167.684 73.7227 167.27 74.1211 166.754L75.4453 167.785C74.3828 169.418 72.7891 170.234 70.6641 170.234ZM70.3945 158.867C69.5195 158.867 68.7852 159.188 68.1914 159.828C67.5977 160.461 67.2305 161.352 67.0898 162.5H73.4414V162.336C73.3789 161.234 73.082 160.383 72.5508 159.781C72.0195 159.172 71.3008 158.867 70.3945 158.867ZM85.957 170C85.832 169.75 85.7305 169.305 85.6523 168.664C84.6445 169.711 83.4414 170.234 82.043 170.234C80.793 170.234 79.7656 169.883 78.9609 169.18C78.1641 168.469 77.7656 167.57 77.7656 166.484C77.7656 165.164 78.2656 164.141 79.2656 163.414C80.2734 162.68 81.6875 162.312 83.5078 162.312H85.6172V161.316C85.6172 160.559 85.3906 159.957 84.9375 159.512C84.4844 159.059 83.8164 158.832 82.9336 158.832C82.1602 158.832 81.5117 159.027 80.9883 159.418C80.4648 159.809 80.2031 160.281 80.2031 160.836H78.0234C78.0234 160.203 78.2461 159.594 78.6914 159.008C79.1445 158.414 79.7539 157.945 80.5195 157.602C81.293 157.258 82.1406 157.086 83.0625 157.086C84.5234 157.086 85.668 157.453 86.4961 158.188C87.3242 158.914 87.7539 159.918 87.7852 161.199V167.035C87.7852 168.199 87.9336 169.125 88.2305 169.812V170H85.957ZM82.3594 168.348C83.0391 168.348 83.6836 168.172 84.293 167.82C84.9023 167.469 85.3438 167.012 85.6172 166.449V163.848H83.918C81.2617 163.848 79.9336 164.625 79.9336 166.18C79.9336 166.859 80.1602 167.391 80.6133 167.773C81.0664 168.156 81.6484 168.348 82.3594 168.348ZM93.5391 170H91.3711V152H93.5391V170ZM102.457 163.555C102.457 161.578 102.914 160.008 103.828 158.844C104.742 157.672 105.953 157.086 107.461 157.086C109.008 157.086 110.215 157.633 111.082 158.727L111.188 157.32H113.168V169.695C113.168 171.336 112.68 172.629 111.703 173.574C110.734 174.52 109.43 174.992 107.789 174.992C106.875 174.992 105.98 174.797 105.105 174.406C104.23 174.016 103.562 173.48 103.102 172.801L104.227 171.5C105.156 172.648 106.293 173.223 107.637 173.223C108.691 173.223 109.512 172.926 110.098 172.332C110.691 171.738 110.988 170.902 110.988 169.824V168.734C110.121 169.734 108.938 170.234 107.438 170.234C105.953 170.234 104.75 169.637 103.828 168.441C102.914 167.246 102.457 165.617 102.457 163.555ZM104.637 163.801C104.637 165.23 104.93 166.355 105.516 167.176C106.102 167.988 106.922 168.395 107.977 168.395C109.344 168.395 110.348 167.773 110.988 166.531V160.742C110.324 159.531 109.328 158.926 108 158.926C106.945 158.926 106.121 159.336 105.527 160.156C104.934 160.977 104.637 162.191 104.637 163.801ZM124.277 168.746C123.434 169.738 122.195 170.234 120.562 170.234C119.211 170.234 118.18 169.844 117.469 169.062C116.766 168.273 116.41 167.109 116.402 165.57V157.32H118.57V165.512C118.57 167.434 119.352 168.395 120.914 168.395C122.57 168.395 123.672 167.777 124.219 166.543V157.32H126.387V170H124.324L124.277 168.746ZM134.953 170.234C133.234 170.234 131.836 169.672 130.758 168.547C129.68 167.414 129.141 165.902 129.141 164.012V163.613C129.141 162.355 129.379 161.234 129.855 160.25C130.34 159.258 131.012 158.484 131.871 157.93C132.738 157.367 133.676 157.086 134.684 157.086C136.332 157.086 137.613 157.629 138.527 158.715C139.441 159.801 139.898 161.355 139.898 163.379V164.281H131.309C131.34 165.531 131.703 166.543 132.398 167.316C133.102 168.082 133.992 168.465 135.07 168.465C135.836 168.465 136.484 168.309 137.016 167.996C137.547 167.684 138.012 167.27 138.41 166.754L139.734 167.785C138.672 169.418 137.078 170.234 134.953 170.234ZM134.684 158.867C133.809 158.867 133.074 159.188 132.48 159.828C131.887 160.461 131.52 161.352 131.379 162.5H137.73V162.336C137.668 161.234 137.371 160.383 136.84 159.781C136.309 159.172 135.59 158.867 134.684 158.867ZM149.801 166.637C149.801 166.051 149.578 165.598 149.133 165.277C148.695 164.949 147.926 164.668 146.824 164.434C145.73 164.199 144.859 163.918 144.211 163.59C143.57 163.262 143.094 162.871 142.781 162.418C142.477 161.965 142.324 161.426 142.324 160.801C142.324 159.762 142.762 158.883 143.637 158.164C144.52 157.445 145.645 157.086 147.012 157.086C148.449 157.086 149.613 157.457 150.504 158.199C151.402 158.941 151.852 159.891 151.852 161.047H149.672C149.672 160.453 149.418 159.941 148.91 159.512C148.41 159.082 147.777 158.867 147.012 158.867C146.223 158.867 145.605 159.039 145.16 159.383C144.715 159.727 144.492 160.176 144.492 160.73C144.492 161.254 144.699 161.648 145.113 161.914C145.527 162.18 146.273 162.434 147.352 162.676C148.438 162.918 149.316 163.207 149.988 163.543C150.66 163.879 151.156 164.285 151.477 164.762C151.805 165.23 151.969 165.805 151.969 166.484C151.969 167.617 151.516 168.527 150.609 169.215C149.703 169.895 148.527 170.234 147.082 170.234C146.066 170.234 145.168 170.055 144.387 169.695C143.605 169.336 142.992 168.836 142.547 168.195C142.109 167.547 141.891 166.848 141.891 166.098H144.059C144.098 166.824 144.387 167.402 144.926 167.832C145.473 168.254 146.191 168.465 147.082 168.465C147.902 168.465 148.559 168.301 149.051 167.973C149.551 167.637 149.801 167.191 149.801 166.637ZM157.734 154.25V157.32H160.102V158.996H157.734V166.859C157.734 167.367 157.84 167.75 158.051 168.008C158.262 168.258 158.621 168.383 159.129 168.383C159.379 168.383 159.723 168.336 160.16 168.242V170C159.59 170.156 159.035 170.234 158.496 170.234C157.527 170.234 156.797 169.941 156.305 169.355C155.812 168.77 155.566 167.938 155.566 166.859V158.996H153.258V157.32H155.566V154.25H157.734ZM174.727 159.266C174.398 159.211 174.043 159.184 173.66 159.184C172.238 159.184 171.273 159.789 170.766 161V170H168.598V157.32H170.707L170.742 158.785C171.453 157.652 172.461 157.086 173.766 157.086C174.188 157.086 174.508 157.141 174.727 157.25V159.266ZM181.758 170.234C180.039 170.234 178.641 169.672 177.562 168.547C176.484 167.414 175.945 165.902 175.945 164.012V163.613C175.945 162.355 176.184 161.234 176.66 160.25C177.145 159.258 177.816 158.484 178.676 157.93C179.543 157.367 180.48 157.086 181.488 157.086C183.137 157.086 184.418 157.629 185.332 158.715C186.246 159.801 186.703 161.355 186.703 163.379V164.281H178.113C178.145 165.531 178.508 166.543 179.203 167.316C179.906 168.082 180.797 168.465 181.875 168.465C182.641 168.465 183.289 168.309 183.82 167.996C184.352 167.684 184.816 167.27 185.215 166.754L186.539 167.785C185.477 169.418 183.883 170.234 181.758 170.234ZM181.488 158.867C180.613 158.867 179.879 159.188 179.285 159.828C178.691 160.461 178.324 161.352 178.184 162.5H184.535V162.336C184.473 161.234 184.176 160.383 183.645 159.781C183.113 159.172 182.395 158.867 181.488 158.867ZM193.242 167.059L196.383 157.32H198.598L194.051 170H192.398L187.805 157.32H190.02L193.242 167.059ZM203.039 170H200.871V157.32H203.039V170ZM200.695 153.957C200.695 153.605 200.801 153.309 201.012 153.066C201.23 152.824 201.551 152.703 201.973 152.703C202.395 152.703 202.715 152.824 202.934 153.066C203.152 153.309 203.262 153.605 203.262 153.957C203.262 154.309 203.152 154.602 202.934 154.836C202.715 155.07 202.395 155.188 201.973 155.188C201.551 155.188 201.23 155.07 201.012 154.836C200.801 154.602 200.695 154.309 200.695 153.957ZM211.781 170.234C210.062 170.234 208.664 169.672 207.586 168.547C206.508 167.414 205.969 165.902 205.969 164.012V163.613C205.969 162.355 206.207 161.234 206.684 160.25C207.168 159.258 207.84 158.484 208.699 157.93C209.566 157.367 210.504 157.086 211.512 157.086C213.16 157.086 214.441 157.629 215.355 158.715C216.27 159.801 216.727 161.355 216.727 163.379V164.281H208.137C208.168 165.531 208.531 166.543 209.227 167.316C209.93 168.082 210.82 168.465 211.898 168.465C212.664 168.465 213.312 168.309 213.844 167.996C214.375 167.684 214.84 167.27 215.238 166.754L216.562 167.785C215.5 169.418 213.906 170.234 211.781 170.234ZM211.512 158.867C210.637 158.867 209.902 159.188 209.309 159.828C208.715 160.461 208.348 161.352 208.207 162.5H214.559V162.336C214.496 161.234 214.199 160.383 213.668 159.781C213.137 159.172 212.418 158.867 211.512 158.867ZM230.473 167.012L232.91 157.32H235.078L231.387 170H229.629L226.547 160.391L223.547 170H221.789L218.109 157.32H220.266L222.762 166.812L225.715 157.32H227.461L230.473 167.012ZM244.676 166.637C244.676 166.051 244.453 165.598 244.008 165.277C243.57 164.949 242.801 164.668 241.699 164.434C240.605 164.199 239.734 163.918 239.086 163.59C238.445 163.262 237.969 162.871 237.656 162.418C237.352 161.965 237.199 161.426 237.199 160.801C237.199 159.762 237.637 158.883 238.512 158.164C239.395 157.445 240.52 157.086 241.887 157.086C243.324 157.086 244.488 157.457 245.379 158.199C246.277 158.941 246.727 159.891 246.727 161.047H244.547C244.547 160.453 244.293 159.941 243.785 159.512C243.285 159.082 242.652 158.867 241.887 158.867C241.098 158.867 240.48 159.039 240.035 159.383C239.59 159.727 239.367 160.176 239.367 160.73C239.367 161.254 239.574 161.648 239.988 161.914C240.402 162.18 241.148 162.434 242.227 162.676C243.312 162.918 244.191 163.207 244.863 163.543C245.535 163.879 246.031 164.285 246.352 164.762C246.68 165.23 246.844 165.805 246.844 166.484C246.844 167.617 246.391 168.527 245.484 169.215C244.578 169.895 243.402 170.234 241.957 170.234C240.941 170.234 240.043 170.055 239.262 169.695C238.48 169.336 237.867 168.836 237.422 168.195C236.984 167.547 236.766 166.848 236.766 166.098H238.934C238.973 166.824 239.262 167.402 239.801 167.832C240.348 168.254 241.066 168.465 241.957 168.465C242.777 168.465 243.434 168.301 243.926 167.973C244.426 167.637 244.676 167.191 244.676 166.637Z" fill="#383838"/>
        <path d="M185.5 33.3333H159.208L163.167 14.2916L163.292 12.9583C163.292 11.25 162.583 9.66663 161.458 8.54163L157.042 4.16663L129.625 31.625C128.083 33.125 127.167 35.2083 127.167 37.5V79.1666C127.167 83.75 130.917 87.5 135.5 87.5H173C176.458 87.5 179.417 85.4166 180.667 82.4166L193.25 53.0416C193.625 52.0833 193.833 51.0833 193.833 50V41.6666C193.833 37.0833 190.083 33.3333 185.5 33.3333ZM185.5 50L173 79.1666H135.5V37.5L153.583 19.4166L148.958 41.6666H185.5V50ZM102.167 37.5H118.833V87.5H102.167V37.5Z" fill="#3077C6"/>
    </symbol>


</svg>


