<svg width="296" height="184" viewBox="0 0 296 184" fill="none" xmlns="http://www.w3.org/2000/svg">
<path d="M87.4727 170V152.938H93.0508C94.9023 152.938 96.293 153.32 97.2227 154.086C98.1602 154.852 98.6289 155.984 98.6289 157.484C98.6289 158.281 98.4023 158.988 97.9492 159.605C97.4961 160.215 96.8789 160.688 96.0977 161.023C97.0195 161.281 97.7461 161.773 98.2773 162.5C98.8164 163.219 99.0859 164.078 99.0859 165.078C99.0859 166.609 98.5898 167.812 97.5977 168.688C96.6055 169.562 95.2031 170 93.3906 170H87.4727ZM89.7227 162.02V168.16H93.4375C94.4844 168.16 95.3086 167.891 95.9102 167.352C96.5195 166.805 96.8242 166.055 96.8242 165.102C96.8242 163.047 95.707 162.02 93.4727 162.02H89.7227ZM89.7227 160.215H93.1211C94.1055 160.215 94.8906 159.969 95.4766 159.477C96.0703 158.984 96.3672 158.316 96.3672 157.473C96.3672 156.535 96.0938 155.855 95.5469 155.434C95 155.004 94.168 154.789 93.0508 154.789H89.7227V160.215ZM101.512 163.543C101.512 162.301 101.754 161.184 102.238 160.191C102.73 159.199 103.41 158.434 104.277 157.895C105.152 157.355 106.148 157.086 107.266 157.086C108.992 157.086 110.387 157.684 111.449 158.879C112.52 160.074 113.055 161.664 113.055 163.648V163.801C113.055 165.035 112.816 166.145 112.34 167.129C111.871 168.105 111.195 168.867 110.312 169.414C109.438 169.961 108.43 170.234 107.289 170.234C105.57 170.234 104.176 169.637 103.105 168.441C102.043 167.246 101.512 165.664 101.512 163.695V163.543ZM103.691 163.801C103.691 165.207 104.016 166.336 104.664 167.188C105.32 168.039 106.195 168.465 107.289 168.465C108.391 168.465 109.266 168.035 109.914 167.176C110.562 166.309 110.887 165.098 110.887 163.543C110.887 162.152 110.555 161.027 109.891 160.168C109.234 159.301 108.359 158.867 107.266 158.867C106.195 158.867 105.332 159.293 104.676 160.145C104.02 160.996 103.691 162.215 103.691 163.801ZM115.199 163.543C115.199 162.301 115.441 161.184 115.926 160.191C116.418 159.199 117.098 158.434 117.965 157.895C118.84 157.355 119.836 157.086 120.953 157.086C122.68 157.086 124.074 157.684 125.137 158.879C126.207 160.074 126.742 161.664 126.742 163.648V163.801C126.742 165.035 126.504 166.145 126.027 167.129C125.559 168.105 124.883 168.867 124 169.414C123.125 169.961 122.117 170.234 120.977 170.234C119.258 170.234 117.863 169.637 116.793 168.441C115.73 167.246 115.199 165.664 115.199 163.695V163.543ZM117.379 163.801C117.379 165.207 117.703 166.336 118.352 167.188C119.008 168.039 119.883 168.465 120.977 168.465C122.078 168.465 122.953 168.035 123.602 167.176C124.25 166.309 124.574 165.098 124.574 163.543C124.574 162.152 124.242 161.027 123.578 160.168C122.922 159.301 122.047 158.867 120.953 158.867C119.883 158.867 119.02 159.293 118.363 160.145C117.707 160.996 117.379 162.215 117.379 163.801ZM133 164.129L131.641 165.547V170H129.473V152H131.641V162.887L132.801 161.492L136.75 157.32H139.387L134.453 162.617L139.961 170H137.418L133 164.129ZM147.004 163.543C147.004 162.301 147.246 161.184 147.73 160.191C148.223 159.199 148.902 158.434 149.77 157.895C150.645 157.355 151.641 157.086 152.758 157.086C154.484 157.086 155.879 157.684 156.941 158.879C158.012 160.074 158.547 161.664 158.547 163.648V163.801C158.547 165.035 158.309 166.145 157.832 167.129C157.363 168.105 156.688 168.867 155.805 169.414C154.93 169.961 153.922 170.234 152.781 170.234C151.062 170.234 149.668 169.637 148.598 168.441C147.535 167.246 147.004 165.664 147.004 163.695V163.543ZM149.184 163.801C149.184 165.207 149.508 166.336 150.156 167.188C150.812 168.039 151.688 168.465 152.781 168.465C153.883 168.465 154.758 168.035 155.406 167.176C156.055 166.309 156.379 165.098 156.379 163.543C156.379 162.152 156.047 161.027 155.383 160.168C154.727 159.301 153.852 158.867 152.758 158.867C151.688 158.867 150.824 159.293 150.168 160.145C149.512 160.996 149.184 162.215 149.184 163.801ZM163.316 157.32L163.387 158.914C164.355 157.695 165.621 157.086 167.184 157.086C169.863 157.086 171.215 158.598 171.238 161.621V170H169.07V161.609C169.062 160.695 168.852 160.02 168.438 159.582C168.031 159.145 167.395 158.926 166.527 158.926C165.824 158.926 165.207 159.113 164.676 159.488C164.145 159.863 163.73 160.355 163.434 160.965V170H161.266V157.32H163.316ZM176.863 170H174.695V152H176.863V170ZM182.699 170H180.531V157.32H182.699V170ZM180.355 153.957C180.355 153.605 180.461 153.309 180.672 153.066C180.891 152.824 181.211 152.703 181.633 152.703C182.055 152.703 182.375 152.824 182.594 153.066C182.812 153.309 182.922 153.605 182.922 153.957C182.922 154.309 182.812 154.602 182.594 154.836C182.375 155.07 182.055 155.188 181.633 155.188C181.211 155.188 180.891 155.07 180.672 154.836C180.461 154.602 180.355 154.309 180.355 153.957ZM188.23 157.32L188.301 158.914C189.27 157.695 190.535 157.086 192.098 157.086C194.777 157.086 196.129 158.598 196.152 161.621V170H193.984V161.609C193.977 160.695 193.766 160.02 193.352 159.582C192.945 159.145 192.309 158.926 191.441 158.926C190.738 158.926 190.121 159.113 189.59 159.488C189.059 159.863 188.645 160.355 188.348 160.965V170H186.18V157.32H188.23ZM204.684 170.234C202.965 170.234 201.566 169.672 200.488 168.547C199.41 167.414 198.871 165.902 198.871 164.012V163.613C198.871 162.355 199.109 161.234 199.586 160.25C200.07 159.258 200.742 158.484 201.602 157.93C202.469 157.367 203.406 157.086 204.414 157.086C206.062 157.086 207.344 157.629 208.258 158.715C209.172 159.801 209.629 161.355 209.629 163.379V164.281H201.039C201.07 165.531 201.434 166.543 202.129 167.316C202.832 168.082 203.723 168.465 204.801 168.465C205.566 168.465 206.215 168.309 206.746 167.996C207.277 167.684 207.742 167.27 208.141 166.754L209.465 167.785C208.402 169.418 206.809 170.234 204.684 170.234ZM204.414 158.867C203.539 158.867 202.805 159.188 202.211 159.828C201.617 160.461 201.25 161.352 201.109 162.5H207.461V162.336C207.398 161.234 207.102 160.383 206.57 159.781C206.039 159.172 205.32 158.867 204.414 158.867Z" fill="#383838"/>
<path d="M114.667 25H189.667V16.6666H114.667C110.083 16.6666 106.333 20.4166 106.333 25V70.8333H98V83.3333H156.333V70.8333H114.667V25ZM193.833 33.3333H168.833C166.542 33.3333 164.667 35.2083 164.667 37.5V79.1666C164.667 81.4583 166.542 83.3333 168.833 83.3333H193.833C196.125 83.3333 198 81.4583 198 79.1666V37.5C198 35.2083 196.125 33.3333 193.833 33.3333ZM189.667 70.8333H173V41.6666H189.667V70.8333Z" fill="#3077C6"/>
</svg>
