<svg width="296" height="183" viewBox="0 0 296 183" fill="none" xmlns="http://www.w3.org/2000/svg">
<path d="M57.2109 163.098H53.2031V170H50.9414V152.938H56.5898C58.5117 152.938 59.9883 153.375 61.0195 154.25C62.0586 155.125 62.5781 156.398 62.5781 158.07C62.5781 159.133 62.2891 160.059 61.7109 160.848C61.1406 161.637 60.3438 162.227 59.3203 162.617L63.3281 169.859V170H60.9141L57.2109 163.098ZM53.2031 161.258H56.6602C57.7773 161.258 58.6641 160.969 59.3203 160.391C59.9844 159.812 60.3164 159.039 60.3164 158.07C60.3164 157.016 60 156.207 59.3672 155.645C58.7422 155.082 57.8359 154.797 56.6484 154.789H53.2031V161.258ZM70.6641 170.234C68.9453 170.234 67.5469 169.672 66.4688 168.547C65.3906 167.414 64.8516 165.902 64.8516 164.012V163.613C64.8516 162.355 65.0898 161.234 65.5664 160.25C66.0508 159.258 66.7227 158.484 67.582 157.93C68.4492 157.367 69.3867 157.086 70.3945 157.086C72.043 157.086 73.3242 157.629 74.2383 158.715C75.1523 159.801 75.6094 161.355 75.6094 163.379V164.281H67.0195C67.0508 165.531 67.4141 166.543 68.1094 167.316C68.8125 168.082 69.7031 168.465 70.7812 168.465C71.5469 168.465 72.1953 168.309 72.7266 167.996C73.2578 167.684 73.7227 167.27 74.1211 166.754L75.4453 167.785C74.3828 169.418 72.7891 170.234 70.6641 170.234ZM70.3945 158.867C69.5195 158.867 68.7852 159.188 68.1914 159.828C67.5977 160.461 67.2305 161.352 67.0898 162.5H73.4414V162.336C73.3789 161.234 73.082 160.383 72.5508 159.781C72.0195 159.172 71.3008 158.867 70.3945 158.867ZM85.957 170C85.832 169.75 85.7305 169.305 85.6523 168.664C84.6445 169.711 83.4414 170.234 82.043 170.234C80.793 170.234 79.7656 169.883 78.9609 169.18C78.1641 168.469 77.7656 167.57 77.7656 166.484C77.7656 165.164 78.2656 164.141 79.2656 163.414C80.2734 162.68 81.6875 162.312 83.5078 162.312H85.6172V161.316C85.6172 160.559 85.3906 159.957 84.9375 159.512C84.4844 159.059 83.8164 158.832 82.9336 158.832C82.1602 158.832 81.5117 159.027 80.9883 159.418C80.4648 159.809 80.2031 160.281 80.2031 160.836H78.0234C78.0234 160.203 78.2461 159.594 78.6914 159.008C79.1445 158.414 79.7539 157.945 80.5195 157.602C81.293 157.258 82.1406 157.086 83.0625 157.086C84.5234 157.086 85.668 157.453 86.4961 158.188C87.3242 158.914 87.7539 159.918 87.7852 161.199V167.035C87.7852 168.199 87.9336 169.125 88.2305 169.812V170H85.957ZM82.3594 168.348C83.0391 168.348 83.6836 168.172 84.293 167.82C84.9023 167.469 85.3438 167.012 85.6172 166.449V163.848H83.918C81.2617 163.848 79.9336 164.625 79.9336 166.18C79.9336 166.859 80.1602 167.391 80.6133 167.773C81.0664 168.156 81.6484 168.348 82.3594 168.348ZM93.5391 170H91.3711V152H93.5391V170ZM102.457 163.555C102.457 161.578 102.914 160.008 103.828 158.844C104.742 157.672 105.953 157.086 107.461 157.086C109.008 157.086 110.215 157.633 111.082 158.727L111.188 157.32H113.168V169.695C113.168 171.336 112.68 172.629 111.703 173.574C110.734 174.52 109.43 174.992 107.789 174.992C106.875 174.992 105.98 174.797 105.105 174.406C104.23 174.016 103.562 173.48 103.102 172.801L104.227 171.5C105.156 172.648 106.293 173.223 107.637 173.223C108.691 173.223 109.512 172.926 110.098 172.332C110.691 171.738 110.988 170.902 110.988 169.824V168.734C110.121 169.734 108.938 170.234 107.438 170.234C105.953 170.234 104.75 169.637 103.828 168.441C102.914 167.246 102.457 165.617 102.457 163.555ZM104.637 163.801C104.637 165.23 104.93 166.355 105.516 167.176C106.102 167.988 106.922 168.395 107.977 168.395C109.344 168.395 110.348 167.773 110.988 166.531V160.742C110.324 159.531 109.328 158.926 108 158.926C106.945 158.926 106.121 159.336 105.527 160.156C104.934 160.977 104.637 162.191 104.637 163.801ZM124.277 168.746C123.434 169.738 122.195 170.234 120.562 170.234C119.211 170.234 118.18 169.844 117.469 169.062C116.766 168.273 116.41 167.109 116.402 165.57V157.32H118.57V165.512C118.57 167.434 119.352 168.395 120.914 168.395C122.57 168.395 123.672 167.777 124.219 166.543V157.32H126.387V170H124.324L124.277 168.746ZM134.953 170.234C133.234 170.234 131.836 169.672 130.758 168.547C129.68 167.414 129.141 165.902 129.141 164.012V163.613C129.141 162.355 129.379 161.234 129.855 160.25C130.34 159.258 131.012 158.484 131.871 157.93C132.738 157.367 133.676 157.086 134.684 157.086C136.332 157.086 137.613 157.629 138.527 158.715C139.441 159.801 139.898 161.355 139.898 163.379V164.281H131.309C131.34 165.531 131.703 166.543 132.398 167.316C133.102 168.082 133.992 168.465 135.07 168.465C135.836 168.465 136.484 168.309 137.016 167.996C137.547 167.684 138.012 167.27 138.41 166.754L139.734 167.785C138.672 169.418 137.078 170.234 134.953 170.234ZM134.684 158.867C133.809 158.867 133.074 159.188 132.48 159.828C131.887 160.461 131.52 161.352 131.379 162.5H137.73V162.336C137.668 161.234 137.371 160.383 136.84 159.781C136.309 159.172 135.59 158.867 134.684 158.867ZM149.801 166.637C149.801 166.051 149.578 165.598 149.133 165.277C148.695 164.949 147.926 164.668 146.824 164.434C145.73 164.199 144.859 163.918 144.211 163.59C143.57 163.262 143.094 162.871 142.781 162.418C142.477 161.965 142.324 161.426 142.324 160.801C142.324 159.762 142.762 158.883 143.637 158.164C144.52 157.445 145.645 157.086 147.012 157.086C148.449 157.086 149.613 157.457 150.504 158.199C151.402 158.941 151.852 159.891 151.852 161.047H149.672C149.672 160.453 149.418 159.941 148.91 159.512C148.41 159.082 147.777 158.867 147.012 158.867C146.223 158.867 145.605 159.039 145.16 159.383C144.715 159.727 144.492 160.176 144.492 160.73C144.492 161.254 144.699 161.648 145.113 161.914C145.527 162.18 146.273 162.434 147.352 162.676C148.438 162.918 149.316 163.207 149.988 163.543C150.66 163.879 151.156 164.285 151.477 164.762C151.805 165.23 151.969 165.805 151.969 166.484C151.969 167.617 151.516 168.527 150.609 169.215C149.703 169.895 148.527 170.234 147.082 170.234C146.066 170.234 145.168 170.055 144.387 169.695C143.605 169.336 142.992 168.836 142.547 168.195C142.109 167.547 141.891 166.848 141.891 166.098H144.059C144.098 166.824 144.387 167.402 144.926 167.832C145.473 168.254 146.191 168.465 147.082 168.465C147.902 168.465 148.559 168.301 149.051 167.973C149.551 167.637 149.801 167.191 149.801 166.637ZM157.734 154.25V157.32H160.102V158.996H157.734V166.859C157.734 167.367 157.84 167.75 158.051 168.008C158.262 168.258 158.621 168.383 159.129 168.383C159.379 168.383 159.723 168.336 160.16 168.242V170C159.59 170.156 159.035 170.234 158.496 170.234C157.527 170.234 156.797 169.941 156.305 169.355C155.812 168.77 155.566 167.938 155.566 166.859V158.996H153.258V157.32H155.566V154.25H157.734ZM174.727 159.266C174.398 159.211 174.043 159.184 173.66 159.184C172.238 159.184 171.273 159.789 170.766 161V170H168.598V157.32H170.707L170.742 158.785C171.453 157.652 172.461 157.086 173.766 157.086C174.188 157.086 174.508 157.141 174.727 157.25V159.266ZM181.758 170.234C180.039 170.234 178.641 169.672 177.562 168.547C176.484 167.414 175.945 165.902 175.945 164.012V163.613C175.945 162.355 176.184 161.234 176.66 160.25C177.145 159.258 177.816 158.484 178.676 157.93C179.543 157.367 180.48 157.086 181.488 157.086C183.137 157.086 184.418 157.629 185.332 158.715C186.246 159.801 186.703 161.355 186.703 163.379V164.281H178.113C178.145 165.531 178.508 166.543 179.203 167.316C179.906 168.082 180.797 168.465 181.875 168.465C182.641 168.465 183.289 168.309 183.82 167.996C184.352 167.684 184.816 167.27 185.215 166.754L186.539 167.785C185.477 169.418 183.883 170.234 181.758 170.234ZM181.488 158.867C180.613 158.867 179.879 159.188 179.285 159.828C178.691 160.461 178.324 161.352 178.184 162.5H184.535V162.336C184.473 161.234 184.176 160.383 183.645 159.781C183.113 159.172 182.395 158.867 181.488 158.867ZM193.242 167.059L196.383 157.32H198.598L194.051 170H192.398L187.805 157.32H190.02L193.242 167.059ZM203.039 170H200.871V157.32H203.039V170ZM200.695 153.957C200.695 153.605 200.801 153.309 201.012 153.066C201.23 152.824 201.551 152.703 201.973 152.703C202.395 152.703 202.715 152.824 202.934 153.066C203.152 153.309 203.262 153.605 203.262 153.957C203.262 154.309 203.152 154.602 202.934 154.836C202.715 155.07 202.395 155.188 201.973 155.188C201.551 155.188 201.23 155.07 201.012 154.836C200.801 154.602 200.695 154.309 200.695 153.957ZM211.781 170.234C210.062 170.234 208.664 169.672 207.586 168.547C206.508 167.414 205.969 165.902 205.969 164.012V163.613C205.969 162.355 206.207 161.234 206.684 160.25C207.168 159.258 207.84 158.484 208.699 157.93C209.566 157.367 210.504 157.086 211.512 157.086C213.16 157.086 214.441 157.629 215.355 158.715C216.27 159.801 216.727 161.355 216.727 163.379V164.281H208.137C208.168 165.531 208.531 166.543 209.227 167.316C209.93 168.082 210.82 168.465 211.898 168.465C212.664 168.465 213.312 168.309 213.844 167.996C214.375 167.684 214.84 167.27 215.238 166.754L216.562 167.785C215.5 169.418 213.906 170.234 211.781 170.234ZM211.512 158.867C210.637 158.867 209.902 159.188 209.309 159.828C208.715 160.461 208.348 161.352 208.207 162.5H214.559V162.336C214.496 161.234 214.199 160.383 213.668 159.781C213.137 159.172 212.418 158.867 211.512 158.867ZM230.473 167.012L232.91 157.32H235.078L231.387 170H229.629L226.547 160.391L223.547 170H221.789L218.109 157.32H220.266L222.762 166.812L225.715 157.32H227.461L230.473 167.012ZM244.676 166.637C244.676 166.051 244.453 165.598 244.008 165.277C243.57 164.949 242.801 164.668 241.699 164.434C240.605 164.199 239.734 163.918 239.086 163.59C238.445 163.262 237.969 162.871 237.656 162.418C237.352 161.965 237.199 161.426 237.199 160.801C237.199 159.762 237.637 158.883 238.512 158.164C239.395 157.445 240.52 157.086 241.887 157.086C243.324 157.086 244.488 157.457 245.379 158.199C246.277 158.941 246.727 159.891 246.727 161.047H244.547C244.547 160.453 244.293 159.941 243.785 159.512C243.285 159.082 242.652 158.867 241.887 158.867C241.098 158.867 240.48 159.039 240.035 159.383C239.59 159.727 239.367 160.176 239.367 160.73C239.367 161.254 239.574 161.648 239.988 161.914C240.402 162.18 241.148 162.434 242.227 162.676C243.312 162.918 244.191 163.207 244.863 163.543C245.535 163.879 246.031 164.285 246.352 164.762C246.68 165.23 246.844 165.805 246.844 166.484C246.844 167.617 246.391 168.527 245.484 169.215C244.578 169.895 243.402 170.234 241.957 170.234C240.941 170.234 240.043 170.055 239.262 169.695C238.48 169.336 237.867 168.836 237.422 168.195C236.984 167.547 236.766 166.848 236.766 166.098H238.934C238.973 166.824 239.262 167.402 239.801 167.832C240.348 168.254 241.066 168.465 241.957 168.465C242.777 168.465 243.434 168.301 243.926 167.973C244.426 167.637 244.676 167.191 244.676 166.637Z" fill="#383838"/>
<path d="M185.5 33.3333H159.208L163.167 14.2916L163.292 12.9583C163.292 11.25 162.583 9.66663 161.458 8.54163L157.042 4.16663L129.625 31.625C128.083 33.125 127.167 35.2083 127.167 37.5V79.1666C127.167 83.75 130.917 87.5 135.5 87.5H173C176.458 87.5 179.417 85.4166 180.667 82.4166L193.25 53.0416C193.625 52.0833 193.833 51.0833 193.833 50V41.6666C193.833 37.0833 190.083 33.3333 185.5 33.3333ZM185.5 50L173 79.1666H135.5V37.5L153.583 19.4166L148.958 41.6666H185.5V50ZM102.167 37.5H118.833V87.5H102.167V37.5Z" fill="#3077C6"/>
</svg>
