<svg width="296" height="178" viewBox="0 0 296 178" fill="none" xmlns="http://www.w3.org/2000/svg">
<path d="M45.7773 164.586C45.5664 166.391 44.8984 167.785 43.7734 168.77C42.6562 169.746 41.168 170.234 39.3086 170.234C37.293 170.234 35.6758 169.512 34.457 168.066C33.2461 166.621 32.6406 164.688 32.6406 162.266V160.625C32.6406 159.039 32.9219 157.645 33.4844 156.441C34.0547 155.238 34.8594 154.316 35.8984 153.676C36.9375 153.027 38.1406 152.703 39.5078 152.703C41.3203 152.703 42.7734 153.211 43.8672 154.227C44.9609 155.234 45.5977 156.633 45.7773 158.422H43.5156C43.3203 157.062 42.8945 156.078 42.2383 155.469C41.5898 154.859 40.6797 154.555 39.5078 154.555C38.0703 154.555 36.9414 155.086 36.1211 156.148C35.3086 157.211 34.9023 158.723 34.9023 160.684V162.336C34.9023 164.188 35.2891 165.66 36.0625 166.754C36.8359 167.848 37.918 168.395 39.3086 168.395C40.5586 168.395 41.5156 168.113 42.1797 167.551C42.8516 166.98 43.2969 165.992 43.5156 164.586H45.7773ZM47.9453 163.543C47.9453 162.301 48.1875 161.184 48.6719 160.191C49.1641 159.199 49.8438 158.434 50.7109 157.895C51.5859 157.355 52.582 157.086 53.6992 157.086C55.4258 157.086 56.8203 157.684 57.8828 158.879C58.9531 160.074 59.4883 161.664 59.4883 163.648V163.801C59.4883 165.035 59.25 166.145 58.7734 167.129C58.3047 168.105 57.6289 168.867 56.7461 169.414C55.8711 169.961 54.8633 170.234 53.7227 170.234C52.0039 170.234 50.6094 169.637 49.5391 168.441C48.4766 167.246 47.9453 165.664 47.9453 163.695V163.543ZM50.125 163.801C50.125 165.207 50.4492 166.336 51.0977 167.188C51.7539 168.039 52.6289 168.465 53.7227 168.465C54.8242 168.465 55.6992 168.035 56.3477 167.176C56.9961 166.309 57.3203 165.098 57.3203 163.543C57.3203 162.152 56.9883 161.027 56.3242 160.168C55.668 159.301 54.793 158.867 53.6992 158.867C52.6289 158.867 51.7656 159.293 51.1094 160.145C50.4531 160.996 50.125 162.215 50.125 163.801ZM64.2461 157.32L64.3047 158.727C65.2344 157.633 66.4883 157.086 68.0664 157.086C69.8398 157.086 71.0469 157.766 71.6875 159.125C72.1094 158.516 72.6562 158.023 73.3281 157.648C74.0078 157.273 74.8086 157.086 75.7305 157.086C78.5117 157.086 79.9258 158.559 79.9727 161.504V170H77.8047V161.633C77.8047 160.727 77.5977 160.051 77.1836 159.605C76.7695 159.152 76.0742 158.926 75.0977 158.926C74.293 158.926 73.625 159.168 73.0938 159.652C72.5625 160.129 72.2539 160.773 72.168 161.586V170H69.9883V161.691C69.9883 159.848 69.0859 158.926 67.2812 158.926C65.8594 158.926 64.8867 159.531 64.3633 160.742V170H62.1953V157.32H64.2461ZM85.293 157.32L85.3516 158.727C86.2812 157.633 87.5352 157.086 89.1133 157.086C90.8867 157.086 92.0938 157.766 92.7344 159.125C93.1562 158.516 93.7031 158.023 94.375 157.648C95.0547 157.273 95.8555 157.086 96.7773 157.086C99.5586 157.086 100.973 158.559 101.02 161.504V170H98.8516V161.633C98.8516 160.727 98.6445 160.051 98.2305 159.605C97.8164 159.152 97.1211 158.926 96.1445 158.926C95.3398 158.926 94.6719 159.168 94.1406 159.652C93.6094 160.129 93.3008 160.773 93.2148 161.586V170H91.0352V161.691C91.0352 159.848 90.1328 158.926 88.3281 158.926C86.9062 158.926 85.9336 159.531 85.4102 160.742V170H83.2422V157.32H85.293ZM112.129 168.746C111.285 169.738 110.047 170.234 108.414 170.234C107.062 170.234 106.031 169.844 105.32 169.062C104.617 168.273 104.262 167.109 104.254 165.57V157.32H106.422V165.512C106.422 167.434 107.203 168.395 108.766 168.395C110.422 168.395 111.523 167.777 112.07 166.543V157.32H114.238V170H112.176L112.129 168.746ZM119.594 157.32L119.664 158.914C120.633 157.695 121.898 157.086 123.461 157.086C126.141 157.086 127.492 158.598 127.516 161.621V170H125.348V161.609C125.34 160.695 125.129 160.02 124.715 159.582C124.309 159.145 123.672 158.926 122.805 158.926C122.102 158.926 121.484 159.113 120.953 159.488C120.422 159.863 120.008 160.355 119.711 160.965V170H117.543V157.32H119.594ZM133.141 170H130.973V157.32H133.141V170ZM130.797 153.957C130.797 153.605 130.902 153.309 131.113 153.066C131.332 152.824 131.652 152.703 132.074 152.703C132.496 152.703 132.816 152.824 133.035 153.066C133.254 153.309 133.363 153.605 133.363 153.957C133.363 154.309 133.254 154.602 133.035 154.836C132.816 155.07 132.496 155.188 132.074 155.188C131.652 155.188 131.332 155.07 131.113 154.836C130.902 154.602 130.797 154.309 130.797 153.957ZM141.707 168.465C142.48 168.465 143.156 168.23 143.734 167.762C144.312 167.293 144.633 166.707 144.695 166.004H146.746C146.707 166.73 146.457 167.422 145.996 168.078C145.535 168.734 144.918 169.258 144.145 169.648C143.379 170.039 142.566 170.234 141.707 170.234C139.98 170.234 138.605 169.66 137.582 168.512C136.566 167.355 136.059 165.777 136.059 163.777V163.414C136.059 162.18 136.285 161.082 136.738 160.121C137.191 159.16 137.84 158.414 138.684 157.883C139.535 157.352 140.539 157.086 141.695 157.086C143.117 157.086 144.297 157.512 145.234 158.363C146.18 159.215 146.684 160.32 146.746 161.68H144.695C144.633 160.859 144.32 160.188 143.758 159.664C143.203 159.133 142.516 158.867 141.695 158.867C140.594 158.867 139.738 159.266 139.129 160.062C138.527 160.852 138.227 161.996 138.227 163.496V163.906C138.227 165.367 138.527 166.492 139.129 167.281C139.73 168.07 140.59 168.465 141.707 168.465ZM157.012 170C156.887 169.75 156.785 169.305 156.707 168.664C155.699 169.711 154.496 170.234 153.098 170.234C151.848 170.234 150.82 169.883 150.016 169.18C149.219 168.469 148.82 167.57 148.82 166.484C148.82 165.164 149.32 164.141 150.32 163.414C151.328 162.68 152.742 162.312 154.562 162.312H156.672V161.316C156.672 160.559 156.445 159.957 155.992 159.512C155.539 159.059 154.871 158.832 153.988 158.832C153.215 158.832 152.566 159.027 152.043 159.418C151.52 159.809 151.258 160.281 151.258 160.836H149.078C149.078 160.203 149.301 159.594 149.746 159.008C150.199 158.414 150.809 157.945 151.574 157.602C152.348 157.258 153.195 157.086 154.117 157.086C155.578 157.086 156.723 157.453 157.551 158.188C158.379 158.914 158.809 159.918 158.84 161.199V167.035C158.84 168.199 158.988 169.125 159.285 169.812V170H157.012ZM153.414 168.348C154.094 168.348 154.738 168.172 155.348 167.82C155.957 167.469 156.398 167.012 156.672 166.449V163.848H154.973C152.316 163.848 150.988 164.625 150.988 166.18C150.988 166.859 151.215 167.391 151.668 167.773C152.121 168.156 152.703 168.348 153.414 168.348ZM165.18 154.25V157.32H167.547V158.996H165.18V166.859C165.18 167.367 165.285 167.75 165.496 168.008C165.707 168.258 166.066 168.383 166.574 168.383C166.824 168.383 167.168 168.336 167.605 168.242V170C167.035 170.156 166.48 170.234 165.941 170.234C164.973 170.234 164.242 169.941 163.75 169.355C163.258 168.77 163.012 167.938 163.012 166.859V158.996H160.703V157.32H163.012V154.25H165.18ZM175.352 170.234C173.633 170.234 172.234 169.672 171.156 168.547C170.078 167.414 169.539 165.902 169.539 164.012V163.613C169.539 162.355 169.777 161.234 170.254 160.25C170.738 159.258 171.41 158.484 172.27 157.93C173.137 157.367 174.074 157.086 175.082 157.086C176.73 157.086 178.012 157.629 178.926 158.715C179.84 159.801 180.297 161.355 180.297 163.379V164.281H171.707C171.738 165.531 172.102 166.543 172.797 167.316C173.5 168.082 174.391 168.465 175.469 168.465C176.234 168.465 176.883 168.309 177.414 167.996C177.945 167.684 178.41 167.27 178.809 166.754L180.133 167.785C179.07 169.418 177.477 170.234 175.352 170.234ZM175.082 158.867C174.207 158.867 173.473 159.188 172.879 159.828C172.285 160.461 171.918 161.352 171.777 162.5H178.129V162.336C178.066 161.234 177.77 160.383 177.238 159.781C176.707 159.172 175.988 158.867 175.082 158.867ZM188.242 163.555C188.242 161.609 188.703 160.047 189.625 158.867C190.547 157.68 191.754 157.086 193.246 157.086C194.73 157.086 195.906 157.594 196.773 158.609V152H198.941V170H196.949L196.844 168.641C195.977 169.703 194.77 170.234 193.223 170.234C191.754 170.234 190.555 169.633 189.625 168.43C188.703 167.227 188.242 165.656 188.242 163.719V163.555ZM190.41 163.801C190.41 165.238 190.707 166.363 191.301 167.176C191.895 167.988 192.715 168.395 193.762 168.395C195.137 168.395 196.141 167.777 196.773 166.543V160.719C196.125 159.523 195.129 158.926 193.785 158.926C192.723 158.926 191.895 159.336 191.301 160.156C190.707 160.977 190.41 162.191 190.41 163.801ZM204.672 170H202.504V157.32H204.672V170ZM202.328 153.957C202.328 153.605 202.434 153.309 202.645 153.066C202.863 152.824 203.184 152.703 203.605 152.703C204.027 152.703 204.348 152.824 204.566 153.066C204.785 153.309 204.895 153.605 204.895 153.957C204.895 154.309 204.785 154.602 204.566 154.836C204.348 155.07 204.027 155.188 203.605 155.188C203.184 155.188 202.863 155.07 202.645 154.836C202.434 154.602 202.328 154.309 202.328 153.957ZM214.281 159.266C213.953 159.211 213.598 159.184 213.215 159.184C211.793 159.184 210.828 159.789 210.32 161V170H208.152V157.32H210.262L210.297 158.785C211.008 157.652 212.016 157.086 213.32 157.086C213.742 157.086 214.062 157.141 214.281 157.25V159.266ZM221.312 170.234C219.594 170.234 218.195 169.672 217.117 168.547C216.039 167.414 215.5 165.902 215.5 164.012V163.613C215.5 162.355 215.738 161.234 216.215 160.25C216.699 159.258 217.371 158.484 218.23 157.93C219.098 157.367 220.035 157.086 221.043 157.086C222.691 157.086 223.973 157.629 224.887 158.715C225.801 159.801 226.258 161.355 226.258 163.379V164.281H217.668C217.699 165.531 218.062 166.543 218.758 167.316C219.461 168.082 220.352 168.465 221.43 168.465C222.195 168.465 222.844 168.309 223.375 167.996C223.906 167.684 224.371 167.27 224.77 166.754L226.094 167.785C225.031 169.418 223.438 170.234 221.312 170.234ZM221.043 158.867C220.168 158.867 219.434 159.188 218.84 159.828C218.246 160.461 217.879 161.352 217.738 162.5H224.09V162.336C224.027 161.234 223.73 160.383 223.199 159.781C222.668 159.172 221.949 158.867 221.043 158.867ZM233.863 168.465C234.637 168.465 235.312 168.23 235.891 167.762C236.469 167.293 236.789 166.707 236.852 166.004H238.902C238.863 166.73 238.613 167.422 238.152 168.078C237.691 168.734 237.074 169.258 236.301 169.648C235.535 170.039 234.723 170.234 233.863 170.234C232.137 170.234 230.762 169.66 229.738 168.512C228.723 167.355 228.215 165.777 228.215 163.777V163.414C228.215 162.18 228.441 161.082 228.895 160.121C229.348 159.16 229.996 158.414 230.84 157.883C231.691 157.352 232.695 157.086 233.852 157.086C235.273 157.086 236.453 157.512 237.391 158.363C238.336 159.215 238.84 160.32 238.902 161.68H236.852C236.789 160.859 236.477 160.188 235.914 159.664C235.359 159.133 234.672 158.867 233.852 158.867C232.75 158.867 231.895 159.266 231.285 160.062C230.684 160.852 230.383 161.996 230.383 163.496V163.906C230.383 165.367 230.684 166.492 231.285 167.281C231.887 168.07 232.746 168.465 233.863 168.465ZM244.281 154.25V157.32H246.648V158.996H244.281V166.859C244.281 167.367 244.387 167.75 244.598 168.008C244.809 168.258 245.168 168.383 245.676 168.383C245.926 168.383 246.27 168.336 246.707 168.242V170C246.137 170.156 245.582 170.234 245.043 170.234C244.074 170.234 243.344 169.941 242.852 169.355C242.359 168.77 242.113 167.938 242.113 166.859V158.996H239.805V157.32H242.113V154.25H244.281ZM251.547 170H249.379V152H251.547V170ZM259.176 166.824L262.129 157.32H264.449L259.352 171.957C258.562 174.066 257.309 175.121 255.59 175.121L255.18 175.086L254.371 174.934V173.176L254.957 173.223C255.691 173.223 256.262 173.074 256.668 172.777C257.082 172.48 257.422 171.938 257.688 171.148L258.168 169.859L253.645 157.32H256.012L259.176 166.824Z" fill="#383838"/>
<path d="M159.5 16.6667V45.8334H118.542L113.667 50.7084V16.6667H159.5ZM163.667 8.33337H109.5C107.208 8.33337 105.333 10.2084 105.333 12.5V70.8334L122 54.1667H163.667C165.958 54.1667 167.833 52.2917 167.833 50V12.5C167.833 10.2084 165.958 8.33337 163.667 8.33337ZM184.5 25H176.167V62.5H122V70.8334C122 73.125 123.875 75 126.167 75H172L188.667 91.6667V29.1667C188.667 26.875 186.792 25 184.5 25Z" fill="#3077C6"/>
</svg>
